<?xml version="1.0" standalone="no"?>
<!DOCTYPE svg PUBLIC "-//W3C//DTD SVG 1.1//EN" "http://www.w3.org/Graphics/SVG/1.1/DTD/svg11.dtd" >
<svg xmlns="http://www.w3.org/2000/svg">
<metadata>Generated by IcoMoon</metadata>
<defs>
<font id="adorn-icons" horiz-adv-x="1024">
<font-face units-per-em="1024" ascent="960" descent="-64" />
<missing-glyph horiz-adv-x="1024" />
<glyph unicode="&#x20;" horiz-adv-x="512" d="" />
<glyph unicode="&#xe900;" glyph-name="address-book" horiz-adv-x="896" d="M872 640c13.254 0 24 10.746 24 24v80c0 13.254-10.746 24-24 24h-40v96c0 53.020-42.98 96-96 96h-640c-53.020 0-96-42.98-96-96v-832c0-53.020 42.98-96 96-96h640c53.020 0 96 42.98 96 96v96h40c13.254 0 24 10.746 24 24v80c0 13.254-10.746 24-24 24h-40v128h40c13.254 0 24 10.746 24 24v80c0 13.254-10.746 24-24 24h-40v128h40zM416 704c88.366 0 160-71.634 160-160s-71.634-160-160-160-160 71.634-160 160 71.634 160 160 160zM672 240c0-26.51-21.49-48-48-48h-416c-26.51 0-48 21.49-48 48v37.046c0 44.052 29.98 82.45 72.716 93.134l71.314 17.828c58.202-41.864 149.018-53.89 223.94 0l71.314-17.828c42.736-10.684 72.716-49.084 72.716-93.134v-37.046z" />
<glyph unicode="&#xe901;" glyph-name="address-card" d="M928 832h-832c-53.020 0-96-42.98-96-96v-576c0-53.020 42.98-96 96-96h832c53.020 0 96 42.98 96 96v576c0 53.020-42.98 96-96 96zM352 672c77.32 0 140-62.68 140-140s-62.68-140-140-140-140 62.68-140 140 62.68 140 140 140zM576 266c0-23.196-18.804-42-42-42h-364c-23.196 0-42 18.804-42 42v32.414c0 38.544 26.232 72.144 63.626 81.492l62.4 15.6c50.928-36.632 130.39-47.154 195.948 0l62.4-15.6c37.394-9.348 63.626-42.946 63.626-81.492v-32.414zM896 344c0-13.254-10.746-24-24-24h-208c-13.254 0-24 10.746-24 24v16c0 13.254 10.746 24 24 24h208c13.254 0 24-10.746 24-24v-16zM896 472c0-13.254-10.746-24-24-24h-208c-13.254 0-24 10.746-24 24v16c0 13.254 10.746 24 24 24h208c13.254 0 24-10.746 24-24v-16zM896 600c0-13.254-10.746-24-24-24h-208c-13.254 0-24 10.746-24 24v16c0 13.254 10.746 24 24 24h208c13.254 0 24-10.746 24-24v-16z" />
<glyph unicode="&#xe902;" glyph-name="angle-down" horiz-adv-x="640" d="M286 255.4l-272 272c-18.8 18.8-18.8 49.2 0 67.8l45.2 45.2c18.8 18.8 49.2 18.8 67.8 0l192.8-192.8 192.8 192.8c18.8 18.8 49.2 18.8 67.8 0l45.2-45.2c18.8-18.8 18.8-49.2 0-67.8l-272-272c-18.4-18.8-48.8-18.8-67.6 0z" />
<glyph unicode="&#xe903;" glyph-name="angle-left" horiz-adv-x="512" d="M63.4 482l272 272c18.8 18.8 49.2 18.8 67.8 0l45.2-45.2c18.8-18.8 18.8-49.2 0-67.8l-192.6-193 192.8-192.8c18.8-18.8 18.8-49.2 0-67.8l-45.2-45.4c-18.8-18.8-49.2-18.8-67.8 0l-272 272c-19 18.8-19 49.2-0.2 68z" />
<glyph unicode="&#xe904;" glyph-name="angle-right" horiz-adv-x="512" d="M448.6 414l-272-272c-18.8-18.8-49.2-18.8-67.8 0l-45.2 45.2c-18.8 18.8-18.8 49.2 0 67.8l192.8 192.8-192.8 192.8c-18.8 18.8-18.8 49.2 0 67.8l45 45.6c18.8 18.8 49.2 18.8 67.8 0l272-272c19-18.8 19-49.2 0.2-68z" />
<glyph unicode="&#xe905;" glyph-name="angle-up" horiz-adv-x="640" d="M354 640.6l272-272c18.8-18.8 18.8-49.2 0-67.8l-45.2-45.2c-18.8-18.8-49.2-18.8-67.8 0l-193 192.6-192.8-192.8c-18.8-18.8-49.2-18.8-67.8 0l-45.4 45.2c-18.8 18.8-18.8 49.2 0 67.8l272 272c18.8 19 49.2 19 68 0.2z" />
<glyph unicode="&#xe906;" glyph-name="arrow-ac-down" d="M1008 448c0-274-222-496-496-496s-496 222-496 496 222 496 496 496 496-222 496-496zM424 680v-232h-141.8c-21.4 0-32.2-26-17-41l229.8-228.6c9.4-9.4 24.4-9.4 33.8 0l229.8 228.6c15.2 15.2 4.4 41-17 41h-141.6v232c0 13.2-10.8 24-24 24h-128c-13.2 0-24-10.8-24-24z" />
<glyph unicode="&#xe907;" glyph-name="arrow-ac-left" d="M512-48c-274 0-496 222-496 496s222 496 496 496 496-222 496-496-222-496-496-496zM744 536h-232v141.8c0 21.4-26 32.2-41 17l-228.6-229.8c-9.4-9.4-9.4-24.4 0-33.8l228.6-229.8c15.2-15.2 41-4.4 41 17v141.6h232c13.2 0 24 10.8 24 24v128c0 13.2-10.8 24-24 24z" />
<glyph unicode="&#xe908;" glyph-name="arrow-ac-right" d="M512 944c274 0 496-222 496-496s-222-496-496-496-496 222-496 496 222 496 496 496zM280 360h232v-141.8c0-21.4 26-32.2 41-17l228.6 229.8c9.4 9.4 9.4 24.4 0 33.8l-228.6 230c-15.2 15.2-41 4.4-41-17v-141.8h-232c-13.2 0-24-10.8-24-24v-128c0-13.2 10.8-24 24-24z" />
<glyph unicode="&#xe909;" glyph-name="arrow-ac-up" d="M16 448c0 274 222 496 496 496s496-222 496-496-222-496-496-496-496 222-496 496zM600 216v232h141.8c21.4 0 32.2 26 17 41l-229.8 228.6c-9.4 9.4-24.4 9.4-33.8 0l-230-228.6c-15.2-15.2-4.4-41 17-41h141.8v-232c0-13.2 10.8-24 24-24h128c13.2 0 24 10.8 24 24z" />
<glyph unicode="&#xe90a;" glyph-name="arrow-alt-down" horiz-adv-x="896" d="M352 896h192c26.6 0 48-21.4 48-48v-400h207.6c42.8 0 64.2-51.6 34-82l-351.6-352c-18.8-18.8-49.2-18.8-68 0l-351.4 352c-30.2 30.2-8.8 82 34 82h207.4v400c0 26.6 21.4 48 48 48z" />
<glyph unicode="&#xe90b;" glyph-name="phone-old" d="M883.507 332.646c-4.915 34.15-31.283 60.774-65.229 68.71-131.942 30.925-165.018 106.906-170.598 191.181-23.398 4.352-65.024 9.062-135.68 9.062s-112.282-4.71-135.68-9.062c-5.581-84.275-38.656-160.256-170.598-191.181-33.946-7.987-60.314-34.56-65.229-68.71l-25.446-176.23c-8.96-62.054 36.608-118.016 99.994-118.016h593.92c63.334 0 108.954 55.962 99.994 118.016l-25.446 176.23zM512 166.81c-71.424 0-129.331 57.344-129.331 128s57.907 128 129.331 128 129.331-57.344 129.331-128-57.958-128-129.331-128zM1021.44 652.8c-1.229 76.8-196.71 204.749-509.44 204.8-312.781-0.051-508.262-128-509.44-204.8s1.075-176.742 129.792-160.102c150.579 19.507 141.312 72.090 141.312 147.251 0 52.429 122.47 65.075 238.336 65.075s238.285-12.646 238.336-65.075c0-75.162-9.267-127.744 141.312-147.251 128.666-16.64 130.97 83.302 129.792 160.102z" />
<glyph unicode="&#xe90c;" glyph-name="truck-front" d="M863.008 544c-17.696 0-32 0-32 0h-63.328l-0.416-40.192c19.136-10.912 31.744-31.648 31.744-55.808l1.344-222.016h-607.36v222.016c0 23.616 12.928 44.032 32 55.136v40.864h-64c0 0-14.336 0-32 0-17.696 0-32 14.336-32 32v32c0 17.696 14.304 32 32 32 17.664 0 32 0 32 0v-64h64v96c0 35.328 28.672 64 64 64h416c35.328 0 64-28.672 64-64l-0.992-96h63.008v64c0 0 14.304 0 32 0 17.664 0 32-14.304 32-32v-32c0-17.664-14.336-32-32-32zM384.992 256h224v32h-224v-32zM384.992 320h224v32h-224v-32zM384.992 384h224v32h-224v-32zM256.992 288c0-17.664 14.304-32 32-32h32c17.664 0 32 14.336 32 32 0 17.696-14.336 32-32 32h-32c-17.664 0-32-14.304-32-32zM704.992 640c0 17.696-14.304 32-32 32h-352c-17.696 0-32-14.304-32-32v-160h416v160zM704.992 320h-32c-17.696 0-32-14.304-32-32 0-17.664 14.304-32 32-32h32c17.664 0 32 14.336 32 32 0 17.696-14.336 32-32 32zM736.992 768h-480c-35.328 0-64-28.672-64-64v160c0 17.696 14.304 32 32 32h544c17.664 0 32-14.304 32-32v-160c0 35.328-28.64 64-64 64zM800.992 161.984c0-17.664-14.336-32-32-32h-544c-17.696 0-32 14.336-32 32 0 17.696 0 32 0 32h608c0 0 0-14.304 0-32zM352.992 32c0-17.664-14.336-32-32-32h-32c-17.696 0-32 14.336-32 32v64h96v-64zM736.992 32c0-17.664-14.336-32-32-32h-32c-17.696 0-32 14.336-32 32v64h96v-64z" />
<glyph unicode="&#xe90d;" glyph-name="truck-line" d="M794.624 593.76c-5.952 8.896-15.936 14.24-26.624 14.24h-32c-17.696 0-32-14.304-32-32v-192c0-17.696 14.304-32 32-32h128c17.696 0 32 14.304 32 32v48c0 6.304-1.888 12.512-5.376 17.76l-96 144zM864 384h-128v192h32l96-144v-48zM1007.872 469.248l-128 192c-17.856 26.784-47.744 42.752-79.872 42.752h-128v64c0 52.928-43.072 96-96 96h-480c-52.928 0-96-43.072-96-96v-352c0-52.928 43.072-96 96-96v0-96c0-52.928 43.072-96 96-96h36.544c14.304-55.072 64-96 123.488-96 59.424 0 109.12 40.928 123.424 96h169.024c14.304-55.072 64-96 123.488-96 59.424 0 109.12 40.928 123.424 96h36.608c52.928 0 96 43.072 96 96v192c0 19.008-5.568 37.44-16.128 53.248zM96 384c-17.664 0-32 14.304-32 32v352c0 17.696 14.336 32 32 32h480c17.696 0 32-14.304 32-32v-352c0-17.696-14.304-32-32-32h-480zM352.032 96c-35.36 0-64 28.672-64 64s28.64 64 64 64c35.328 0 64-28.672 64-64s-28.704-64-64-64zM768 96c-35.36 0-64 28.672-64 64s28.64 64 64 64c35.328 0 64-28.672 64-64s-28.672-64-64-64zM960 224c0-17.696-14.304-32-32-32h-36.576c-14.304 55.072-64 96-123.424 96-59.488 0-109.184-40.928-123.488-96h-169.024c-14.304 55.072-64 96-123.424 96-59.488 0-109.184-40.928-123.488-96h-36.576c-17.664 0-32 14.304-32 32v96h416c52.928 0 96 43.072 96 96v224h128c10.688 0 20.672-5.344 26.624-14.24l128-192c3.488-5.248 5.376-11.456 5.376-17.76v-192z" />
<glyph unicode="&#xe90e;" glyph-name="amazon" horiz-adv-x="896" d="M514.4 634.6c-97.4-3.6-339-31-339-235 0-219 276.6-228 367-86.4 13-20.4 70.8-75 90.6-93.6l113.6 112s-64.6 50.6-64.6 105.6v294.2c0 50.6-49 164.6-224.6 164.6-176 0-269.4-110-269.4-208.6l147-13.6c32.6 99 108.4 99 108.4 99 81.4 0.2 71-59.6 71-138.2zM514.4 461c0-160-168.4-136-168.4-34.4 0 94.4 101 113.4 168.4 115.6v-81.2zM786.4 134c-15.4-20-140-134-349-134s-369 143-418 202c-13.6 15.4 2 22.6 11 16.6 146.6-89 375.6-235.6 745-60.6 15 7.4 26.6-4 11-24zM866 129.6c-13-31.6-32-53.6-42.4-62-11-9-19-5.4-13 7.6s38.6 93 25.4 110c-13 16.6-74 8.6-96 6.4-21.6-2-26-4-28 0.6-4.6 11.4 43.4 31 75 35 31.4 3.6 82 1.6 92-11.4 7.4-10.2 0-54.2-13-86.2z" />
<glyph unicode="&#xe90f;" glyph-name="arrow-alt-left" horiz-adv-x="896" d="M896 544v-192c0-26.6-21.4-48-48-48h-400v-207.6c0-42.8-51.6-64.2-82-34l-352 351.6c-18.8 18.8-18.8 49.2 0 68l352 351.4c30.2 30.2 82 8.8 82-34v-207.4h400c26.6 0 48-21.4 48-48z" />
<glyph unicode="&#xe910;" glyph-name="arrow-alt-right" horiz-adv-x="896" d="M0 352v192c0 26.6 21.4 48 48 48h400v207.6c0 42.8 51.6 64.2 82 34l352-351.6c18.8-18.8 18.8-49.2 0-68l-352-351.4c-30.2-30.2-82-8.8-82 34v207.4h-400c-26.6 0-48 21.4-48 48z" />
<glyph unicode="&#xe911;" glyph-name="arrow-as-down" horiz-adv-x="896" d="M896 800v-704c0-53-43-96-96-96h-704c-53 0-96 43-96 96v704c0 53 43 96 96 96h704c53 0 96-43 96-96zM360 680v-232h-141.8c-21.4 0-32.2-26-17-41l229.8-228.6c9.4-9.4 24.4-9.4 33.8 0l229.8 228.6c15.2 15.2 4.4 41-17 41h-141.6v232c0 13.2-10.8 24-24 24h-128c-13.2 0-24-10.8-24-24z" />
<glyph unicode="&#xe912;" glyph-name="arrow-as-left" horiz-adv-x="896" d="M800 0h-704c-53 0-96 43-96 96v704c0 53 43 96 96 96h704c53 0 96-43 96-96v-704c0-53-43-96-96-96zM680 536h-232v141.8c0 21.4-26 32.2-41 17l-228.6-229.8c-9.4-9.4-9.4-24.4 0-33.8l228.6-229.8c15.2-15.2 41-4.4 41 17v141.6h232c13.2 0 24 10.8 24 24v128c0 13.2-10.8 24-24 24z" />
<glyph unicode="&#xe913;" glyph-name="arrow-as-right" horiz-adv-x="896" d="M96 896h704c53 0 96-43 96-96v-704c0-53-43-96-96-96h-704c-53 0-96 43-96 96v704c0 53 43 96 96 96zM216 360h232v-141.8c0-21.4 26-32.2 41-17l228.6 229.8c9.4 9.4 9.4 24.4 0 33.8l-228.6 230c-15.2 15.2-41 4.4-41-17v-141.8h-232c-13.2 0-24-10.8-24-24v-128c0-13.2 10.8-24 24-24z" />
<glyph unicode="&#xe914;" glyph-name="arrow-as-up" horiz-adv-x="896" d="M0 96v704c0 53 43 96 96 96h704c53 0 96-43 96-96v-704c0-53-43-96-96-96h-704c-53 0-96 43-96 96zM536 216v232h141.8c21.4 0 32.2 26 17 41l-229.8 228.6c-9.4 9.4-24.4 9.4-33.8 0l-230-228.6c-15.2-15-4.4-41 17-41h141.8v-232c0-13.2 10.8-24 24-24h128c13.2 0 24 10.8 24 24z" />
<glyph unicode="&#xe915;" glyph-name="amazon-pay" horiz-adv-x="1222" d="M0 309.6c4.6 8.4 10.4 9.8 19.4 5 20.8-11.2 41.2-22.8 62.4-33.4 81.4-40.8 166.4-71.2 254.8-92.6 41.8-10 83.8-18 126.4-23.6 63-8.4 126.4-12 190-10.4 34.8 0.8 69.6 3.6 104.2 7.6 112.8 13.4 221.8 41.6 326.6 85.6 5.8 2.4 11.8 4 18.2 2.4 13.4-3.6 18-18 8.2-27.8-5.6-5.6-12.6-10.2-19.2-14.8-61.4-42.2-128.4-72.8-199.2-95.8-49.2-15.8-99.2-27.6-150.2-35.2-35.2-5.2-70.8-8.8-106.4-9.6-1.6 0-3.4-0.4-5-0.6h-42.2c-1.6 0.2-3.4 0.6-5 0.6-7.2 0.4-14.4 0.6-21.4 0.8-33.8 1.4-67.4 5.2-100.8 10.6-54.8 9-108.4 22.8-160.8 41.8-108.2 39.2-205.2 97.2-291.2 174-3.6 3.2-6 7.6-8.8 11.4v4zM316 830c-2.8-0.4-5.8-0.8-8.6-1.2-28-3.4-53.2-13.8-76-30.2-4.8-3.4-9.2-7-14.2-10.8-0.4 1-0.8 2-0.8 2.8-0.8 5.4-1.6 11-2.6 16.4-1.4 9.2-6 13.2-15.2 13.2h-23c-13.8 0-16.4-2.6-16.4-16.4v-418.6c0-2 0-4 0.2-6 0.4-6 4-9.8 9.8-10 14-0.2 28.2-0.2 42.2 0 5.8 0 9.4 4 10 10 0.2 2 0.2 4 0.2 6v144.8c2.2-1.8 3.4-2.8 4.4-3.8 35.8-29.8 77-39.6 122-30.8 40.8 8 69.2 33 87.6 69.8 14 27.8 19.8 57.4 20.6 88.2 1 34.2-2.4 67.8-16.2 99.6-17 39.2-45.2 65-87.8 73.8-6.4 1.4-13 2-19.6 3-5.6 0.2-11 0.2-16.6 0.2zM221.2 746.2c0 3 0.8 4.8 3.4 6.6 27.4 19 57.6 29 91.2 26.4 29.8-2.2 54.2-16.8 67-51.8 7.8-21.4 9.8-43.6 9.8-66 0-20.8-1.6-41.2-8-61.2-13.6-42.6-44.8-58.8-85.2-57-28 1.2-52.4 12-74.8 27.8-2.4 1.8-3.4 3.4-3.4 6.6 0.2 28.2 0 56.2 0 84.4 0 28 0.2 56 0 84.2zM632.6 830c-2-0.2-4-0.6-5.8-0.8-19.6-1-38.8-3.4-57.8-8.2-12.2-3.2-24-7.6-35.8-11.6-7.2-2.4-10.8-7.6-10.6-15.4 0.2-6.6-0.2-13.2 0-19.8 0.2-9.6 4.2-12.2 13.6-9.8 15.6 4 31.2 8.4 47 11.4 24.6 4.6 49.4 6.6 74.4 2.8 13-2 25.2-5.8 33.6-16.8 7.4-9.6 10.2-21 10.6-32.8 0.6-16.6 0.4-33.2 0.6-49.8 0-0.8-0.2-1.8-0.4-2.8-1 0.2-1.8 0-2.6 0.2-21 5-42.2 8.6-64 9.8-22.6 1.2-45-0.2-66.6-7.8-25.8-9-46.6-24.6-58.8-49.8-9.4-19.6-10.8-40.4-7.8-61.4 4-28 18-49.6 42.8-63.4 23.8-13.2 49.6-14.8 75.8-10.8 30.2 4.6 57 17.4 80.6 36.8 0.8 0.8 1.8 1.4 3.2 2.2 1.2-7.6 2.2-14.8 3.6-22 1.2-6.2 5-10.2 10.8-10.4 10.8-0.2 21.8-0.2 32.6 0 5.4 0.2 9 3.8 9.6 9.4 0.2 1.8 0.2 3.8 0.2 5.6v212c0 8.6-0.4 17.2-1.8 25.8-3.8 25.8-14.8 47-38 60.8-13.4 8-28.2 12-43.6 14.2-7.2 1-14.4 1.6-21.6 2.6-7.8-0.2-15.8-0.2-23.8-0.2zM702.6 574.6c0-2.6-0.8-4.4-3-6-22.4-16.2-47-27-74.8-29.8-11.4-1.2-22.8-0.8-33.6 3.6-12.6 5-20.8 13.8-24.8 26.6s-4 26-0.2 38.8c5 16.6 16.8 26 32.8 31.2 16.2 5.2 33 6 49.6 4.4 16.8-1.4 33.2-4.6 50-6.8 3.2-0.4 4.2-2 4.2-5.2-0.2-9.6 0-19 0-28.6-0.2-9.4-0.4-18.8-0.2-28.2zM1222.4 315.8c-2 10-9.6 13.8-18.2 16.6-13.6 4.6-27.8 6.6-42 7.8-26.2 2.2-52.4 1-78.4-3.8-28.6-5.4-55.8-14.6-80-31.2-2.8-2-5.6-4.2-7.4-7-1.4-2.2-1.8-5.6-1-8 0.8-3 4.2-3.8 7.2-3.6 1.4 0 3 0 4.4 0.2 15.6 1.6 31 3.4 46.6 5 22.8 2.2 45.8 3.6 68.6 1.8 9.6-0.6 19.4-2.8 28.8-5.4 10.2-2.8 14.8-10.4 15.2-20.8 0.8-16-2.8-31.4-7-46.6-8.2-30.8-20-60.6-31.6-90.2-0.8-2-1.6-4-2-6-1-5.8 2.4-9.6 8.2-8.2 3.4 0.8 7.2 2.6 9.6 5 8.8 8.6 17.8 17.2 25.4 26.8 25.6 32.8 40.6 70.6 49.4 111.2 1.6 7.2 2.8 14.6 4.2 21.8v34.6zM958.2 562.2c-25.8 71.4-51.6 143-77.4 214.4-4 11.4-8.4 22.6-12.6 33.8-2.2 5.8-6.4 9.6-12.8 9.6-15.2 0.2-30.4 0.4-45.8 0.2-5 0-7.4-4-6.4-9 1-4.2 2.2-8.2 3.8-12.2 39.2-97 78.6-194.2 118.2-291 3.4-8.2 4.2-15.2 0.4-23.6-6.6-14.6-11.8-30-18.6-44.6-6-13-16-22.8-30.4-26.6-10.2-2.8-20.4-3.2-30.8-2.2-5 0.4-10 1.6-15 2-6.8 0.4-10.2-2.6-10.4-9.6-0.2-6.6-0.2-13.2 0-19.8 0.2-11 4-16 14.8-17.8 11.2-2 22.6-3.8 33.8-4 34.2-0.8 61.4 13 79 42.8 7 11.8 13.4 24.2 18.4 36.8 47.4 119.6 94.2 239.4 141.2 359.2 1.4 3.6 2.6 7.2 3.2 11 0.8 5.6-1.8 8.8-7.4 8.8-13.2 0.2-26.6 0-39.8 0-7.4 0-12.6-3.2-15.4-10.4-1-2.8-2.2-5.4-3.2-8.2-23.2-66.6-46.4-133.2-69.6-200-5-14.4-10.2-29-15.4-44.4-0.8 2.2-1.2 3.4-1.8 4.8z" />
<glyph unicode="&#xe916;" glyph-name="arrow-alt-to-left" horiz-adv-x="896" d="M0 112v672c0 26.6 21.4 48 48 48h48c26.6 0 48-21.4 48-48v-672c0-26.6-21.4-48-48-48h-48c-26.6 0-48 21.4-48 48zM848 576h-272v175.4c0 35.6-43 53.4-68.2 28.2l-304.4-304.2c-15-15-15-39.6 0-54.6l304.4-304.4c25.2-25.2 68.2-7.4 68.2 28.2v175.4h272c26.6 0 48 21.4 48 48v160c0 26.6-21.4 48-48 48z" />
<glyph unicode="&#xe917;" glyph-name="arrow-alt-to-right" horiz-adv-x="896" d="M896 784v-672c0-26.6-21.4-48-48-48h-48c-26.6 0-48 21.4-48 48v672c0 26.6 21.4 48 48 48h48c26.6 0 48-21.4 48-48zM48 320h272v-175.4c0-35.6 43-53.4 68.2-28.2l304.4 304.4c15 15 15 39.6 0 54.6l-304.4 304.4c-25.2 25.2-68.2 7.4-68.2-28.2v-175.6h-272c-26.6 0-48-21.4-48-48v-160c0-26.6 21.4-48 48-48z" />
<glyph unicode="&#xe918;" glyph-name="android" horiz-adv-x="896" d="M179.2 551v-231.6c0-30.8-24.2-55.4-55-55.4-30.6 0-60.2 24.8-60.2 55.4v231.6c0 30.2 29.6 55 60.2 55 30.2 0 55-24.8 55-55zM200.8 237c0-32.8 26.4-59.2 59.2-59.2h39.8l0.6-122.2c0-73.8 110.4-73.2 110.4 0v122.2h74.4v-122.2c0-73.4 111-73.6 111 0v122.2h40.4c32.4 0 58.8 26.4 58.8 59.2v358.8h-494.6v-358.8zM696.8 615.2h-498.2c0 85.6 51.2 160 127.2 198.8l-38.2 70.6c-5.6 9.8 8.6 16 13.4 7.6l38.8-71.2c69.8 31 150 29.4 216.6 0l38.6 71c5 8.6 19 2.2 13.4-7.6l-38.2-70.4c75.4-38.8 126.6-113.2 126.6-198.8zM355.4 726.2c0 11.4-9.2 21-21 21-11.4 0-20.4-9.6-20.4-21s9.2-21 20.4-21c11.8 0 21 9.6 21 21zM582.2 726.2c0 11.4-9.2 21-20.4 21-11.8 0-21-9.6-21-21s9.2-21 21-21c11.2 0 20.4 9.6 20.4 21zM771.8 606c-30.2 0-55-24.2-55-55v-231.6c0-30.8 24.8-55.4 55-55.4 30.8 0 60.2 24.8 60.2 55.4v231.6c0 30.8-29.6 55-60.2 55z" />
<glyph unicode="&#xe919;" glyph-name="arrow-alt-up" horiz-adv-x="896" d="M544 0h-192c-26.6 0-48 21.4-48 48v400h-207.6c-42.8 0-64.2 51.6-34 82l351.6 352c18.8 18.8 49.2 18.8 68 0l351.6-352c30.2-30.2 8.8-82-34-82h-207.6v-400c0-26.6-21.4-48-48-48z" />
<glyph unicode="&#xe91a;" glyph-name="arrow-circle-down" d="M1008 448c0-274-222-496-496-496s-496 222-496 496 222 496 496 496 496-222 496-496zM720.8 505.8l-144.8-151v365.2c0 26.6-21.4 48-48 48h-32c-26.6 0-48-21.4-48-48v-365.2l-144.8 151c-18.6 19.4-49.6 19.8-68.6 0.8l-21.8-22c-18.8-18.8-18.8-49.2 0-67.8l265.2-265.4c18.8-18.8 49.2-18.8 67.8 0l265.4 265.4c18.8 18.8 18.8 49.2 0 67.8l-21.8 22c-19 19-50 18.6-68.6-0.8z" />
<glyph unicode="&#xe91b;" glyph-name="arrow-circle-left" d="M512-48c-274 0-496 222-496 496s222 496 496 496 496-222 496-496-222-496-496-496zM569.8 239.2l-151 144.8h365.2c26.6 0 48 21.4 48 48v32c0 26.6-21.4 48-48 48h-365.2l151 144.8c19.4 18.6 19.8 49.6 0.8 68.6l-22 21.8c-18.8 18.8-49.2 18.8-67.8 0l-265.4-265.2c-18.8-18.8-18.8-49.2 0-67.8l265.4-265.4c18.8-18.8 49.2-18.8 67.8 0l22 21.8c19 19 18.6 50-0.8 68.6z" />
<glyph unicode="&#xe91c;" glyph-name="arrow-circle-right" d="M512 944c274 0 496-222 496-496s-222-496-496-496-496 222-496 496 222 496 496 496zM454.2 656.8l151-144.8h-365.2c-26.6 0-48-21.4-48-48v-32c0-26.6 21.4-48 48-48h365.2l-151-144.8c-19.4-18.6-19.8-49.6-0.8-68.6l22-21.8c18.8-18.8 49.2-18.8 67.8 0l265.4 265.2c18.8 18.8 18.8 49.2 0 67.8l-265.4 265.6c-18.8 18.8-49.2 18.8-67.8 0l-22-21.8c-19-19.2-18.6-50.2 0.8-68.8z" />
<glyph unicode="&#xe91d;" glyph-name="arrow-circle-up" d="M16 448c0 274 222 496 496 496s496-222 496-496-222-496-496-496-496 222-496 496zM303.2 390.2l144.8 151v-365.2c0-26.6 21.4-48 48-48h32c26.6 0 48 21.4 48 48v365.2l144.8-151c18.6-19.4 49.6-19.8 68.6-0.8l21.8 22c18.8 18.8 18.8 49.2 0 67.8l-265.2 265.4c-18.8 18.8-49.2 18.8-67.8 0l-265.6-265.4c-18.8-18.8-18.8-49.2 0-67.8l21.8-22c19.2-19 50.2-18.6 68.8 0.8z" />
<glyph unicode="&#xe91e;" glyph-name="phone-call-r" d="M640 448c0 70-58 128-128 128v86c118 0 214-96 214-214h-86zM810 448c0 166-132 298-298 298v86c212 0 384-172 384-384h-86zM854 298c24 0 42-18 42-42v-150c0-24-18-42-42-42-400 0-726 326-726 726 0 24 18 42 42 42h150c24 0 42-18 42-42 0-54 8-104 24-152 4-14 2-32-10-44l-94-94c62-122 162-220 282-282l94 94c12 12 30 14 44 10 48-16 98-24 152-24z" />
<glyph unicode="&#xe91f;" glyph-name="phone-call-l" d="M870.4 366.933c-38.4 4.267-76.8 12.8-110.933 25.6-46.933 17.067-98.133 4.267-136.533-29.867l-29.867-29.867c-76.8 51.2-145.067 115.2-196.267 196.267l29.867 29.867c34.133 34.133 46.933 89.6 29.867 136.533-12.8 34.133-21.333 72.533-25.6 110.933-8.533 64-64 110.933-128 110.933 0 0 0 0 0 0h-128c-4.267 0-8.533 0-12.8 0-34.133-4.267-64-21.333-85.333-46.933s-29.867-59.733-29.867-93.867c12.8-136.533 64-273.067 136.533-388.267 68.267-106.667 162.133-200.533 268.8-268.8 115.2-76.8 251.733-123.733 388.267-136.533 4.267 0 8.533 0 12.8 0 0 0 0 0 0 0 34.133 0 68.267 12.8 89.6 38.4s38.4 55.467 38.4 89.6v128c0 64-46.933 119.467-110.933 128zM896 238.933v-128c0-12.8-4.267-21.333-12.8-29.867s-17.067-12.8-34.133-12.8c-123.733 12.8-243.2 55.467-349.867 123.733-98.133 59.733-179.2 145.067-243.2 243.2-68.267 106.667-110.933 226.133-123.733 349.867 0 12.8 4.267 21.333 8.533 29.867 8.533 8.533 21.333 17.067 34.133 17.067h128c0 0 0 0 0 0 21.333 0 38.4-17.067 42.667-38.4 4.267-42.667 17.067-89.6 34.133-128 4.267-17.067 0-34.133-8.533-46.933l-55.467-51.2c-12.8-12.8-17.067-34.133-8.533-51.2 64-115.2 157.867-209.067 273.067-273.067 17.067-8.533 38.4-8.533 51.2 8.533l55.467 55.467c12.8 12.8 29.867 17.067 46.933 8.533 42.667-17.067 85.333-25.6 128-34.133 17.067-4.267 34.133-21.333 34.133-42.667 0 0 0 0 0 0zM648.533 960c-21.333 4.267-42.667-12.8-46.933-38.4-4.267-21.333 12.8-42.667 38.4-46.933 157.867-17.067 281.6-140.8 302.933-302.933 4.267-21.333 21.333-38.4 42.667-38.4 0 0 4.267 0 4.267 0 21.333 4.267 38.4 25.6 38.4 46.933-25.6 200.533-183.467 358.4-379.733 379.733zM768 571.733c4.267-21.333 21.333-34.133 42.667-34.133 4.267 0 4.267 0 8.533 0 21.333 4.267 38.4 25.6 34.133 51.2-21.333 102.4-98.133 183.467-200.533 200.533-21.333 4.267-46.933-8.533-51.2-34.133s8.533-46.933 34.133-51.2c68.267-12.8 119.467-64 132.267-132.267z" />
<glyph unicode="&#xe920;" glyph-name="phone-tel" d="M512 960c-182.4 0-365.226-32.64-431.574-97.706-55.040-53.974-73.386-149.334-79.574-209.706 0 0-0.854-5.974-0.854-8.534 0-23.68 19.2-42.666 42.666-42.666 2.774 0 105.386 8.32 167.254 13.44 1.494 0.214 2.986 0.426 4.48 0.854 23.040 0.64 41.6 19.414 41.6 42.666l0.214 84.054c0.002 26.024 21.122 46.932 47.148 46.932h417.258c26.048 0 47.168-20.908 47.168-46.934l0.214-84.054c0-23.254 18.56-42.026 41.6-42.666 1.472-0.426 2.986-0.64 4.48-0.854 61.866-5.12 164.48-13.44 167.254-13.44 23.466 0 42.666 18.986 42.666 42.666 0 2.56-0.854 8.534-0.854 8.534-6.186 60.374-24.512 155.734-79.552 209.706-66.368 65.068-249.194 97.708-431.594 97.708zM512 405.334c-47.146 0-85.334-38.186-85.334-85.334s38.186-85.334 85.334-85.334 85.334 38.186 85.334 85.334-38.188 85.334-85.334 85.334zM448 597.334v53.334c0 29.44-23.894 53.334-53.334 53.334s-53.332-23.896-53.332-53.336v-53.332l-287.788-307.414c-19.84-19.414-32.212-46.506-32.212-76.374v-85.546c0-47.146 38.186-85.334 85.334-85.334h21.334v-53.334c-0.002-29.438 23.892-53.332 53.332-53.332s53.334 23.894 53.334 53.334l-0.002 53.332h554.666v-53.334c0-29.44 23.894-53.334 53.334-53.334s53.334 23.894 53.334 53.334v53.334h21.334c47.146 0 85.334 38.186 85.334 85.334v85.546c0 29.866-12.374 56.96-32.214 76.374l-287.788 307.414v53.334c0 29.44-23.894 53.334-53.334 53.334s-53.332-23.896-53.332-53.336v-53.332h-128zM512 490.666c94.294 0 170.666-76.374 170.666-170.666s-76.374-170.666-170.666-170.666-170.666 76.374-170.666 170.666 76.372 170.666 170.666 170.666z" />
<glyph unicode="&#xe921;" glyph-name="shield-check-r" d="M932.922 792.616l-384 160c-10.906 4.67-23.598 7.385-36.923 7.385s-26.017-2.715-37.551-7.622l0.628 0.237-384-160c-34.986-14.855-59.076-48.921-59.076-88.615 0 0 0-0.001 0-0.001v0c0-396.974 228.99-671.426 443.078-760.616 10.906-4.67 23.598-7.385 36.923-7.385s26.017 2.715 37.551 7.622l-0.628-0.237c171.208 71.326 443.076 318.052 443.076 760.616 0 0 0 0 0 0 0 39.694-24.091 73.762-58.45 88.378l-0.628 0.237zM511.996 32.002c-195.094 81.276-383.996 333.442-383.996 671.998l383.998 160 384.002-160c0-347.608-196.796-594.034-384.004-671.998zM807.64 579.448l-345.176-342.408c-9.41-9.334-24.606-9.274-33.94 0.136l-181.562 183.032c-9.334 9.41-9.274 24.606 0.138 33.942l45.436 45.072c9.41 9.334 24.606 9.274 33.94-0.138l119.584-120.554 282.704 280.43c9.41 9.334 24.606 9.274 33.94-0.136l45.072-45.436c9.336-9.41 9.274-24.606-0.136-33.94z" />
<glyph unicode="&#xe922;" glyph-name="apple" horiz-adv-x="896" d="M494.4 684.8c-12.4-3.8-30.6-7-55.8-9.2 2.2 113.4 59.8 193.2 176 220.2 18.6-83.2-52.2-188.2-120.2-211zM737 539.4c12.8 18.8 33.2 39.8 61.2 63.4-44.6 55.2-96.2 88.6-170.2 88.6-70.8 0-130.4-36.4-174-36.4-37 0-103.8 32.2-169 32.2-139.2 0-213-136.2-213-278 0-157.6 119.4-409.2 240.4-409.2 47.6 0 90.4 36 147 36 58.6 0 105.6-34.4 160.6-34.4 92 0 177.2 155 204 239.4-93.6 28.6-168.8 180.4-87 298.4z" />
<glyph unicode="&#xe927;" glyph-name="arrows-alt-h" d="M755.882 620.118v-92.118h-487.764v92.118c0 42.764-51.702 64.18-81.942 33.942l-172.118-172.118c-18.746-18.746-18.746-49.136 0-67.882l172.118-172.118c30.238-30.238 81.942-8.822 81.942 33.942v92.116h487.764v-92.118c0-42.764 51.702-64.18 81.942-33.942l172.118 172.118c18.746 18.746 18.746 49.136 0 67.882l-172.118 172.118c-30.238 30.24-81.942 8.824-81.942-33.94z" />
<glyph unicode="&#xe928;" glyph-name="arrows-alt-v" horiz-adv-x="512" d="M428.118 204.118h-92.118v487.764h92.118c42.764 0 64.18 51.702 33.942 81.942l-172.118 172.118c-18.746 18.746-49.136 18.746-67.882 0l-172.118-172.118c-30.238-30.238-8.822-81.942 33.942-81.942h92.116v-487.764h-92.118c-42.764 0-64.18-51.702-33.942-81.942l172.118-172.118c18.746-18.746 49.136-18.746 67.882 0l172.118 172.118c30.24 30.238 8.824 81.942-33.94 81.942z" />
<glyph unicode="&#xe92a;" glyph-name="arrow-sq-down" horiz-adv-x="896" d="M896 800v-704c0-53-43-96-96-96h-704c-53 0-96 43-96 96v704c0 53 43 96 96 96h704c53 0 96-43 96-96zM656.8 505.8l-144.8-151v365.2c0 26.6-21.4 48-48 48h-32c-26.6 0-48-21.4-48-48v-365.2l-144.8 151c-18.6 19.4-49.6 19.8-68.6 0.8l-21.8-22c-18.8-18.8-18.8-49.2 0-67.8l265.2-265.4c18.8-18.8 49.2-18.8 67.8 0l265.4 265.4c18.8 18.8 18.8 49.2 0 67.8l-21.8 22c-19 19-50 18.6-68.6-0.8z" />
<glyph unicode="&#xe92b;" glyph-name="arrow-sq-left" horiz-adv-x="896" d="M800 0h-704c-53 0-96 43-96 96v704c0 53 43 96 96 96h704c53 0 96-43 96-96v-704c0-53-43-96-96-96zM505.8 239.2l-151 144.8h365.2c26.6 0 48 21.4 48 48v32c0 26.6-21.4 48-48 48h-365.2l151 144.8c19.4 18.6 19.8 49.6 0.8 68.6l-22 21.8c-18.8 18.8-49.2 18.8-67.8 0l-265.4-265.2c-18.8-18.8-18.8-49.2 0-67.8l265.4-265.4c18.8-18.8 49.2-18.8 67.8 0l22 21.8c19 19 18.6 50-0.8 68.6z" />
<glyph unicode="&#xe92c;" glyph-name="arrow-sq-right" horiz-adv-x="896" d="M96 896h704c53 0 96-43 96-96v-704c0-53-43-96-96-96h-704c-53 0-96 43-96 96v704c0 53 43 96 96 96zM390.2 656.8l151-144.8h-365.2c-26.6 0-48-21.4-48-48v-32c0-26.6 21.4-48 48-48h365.2l-151-144.8c-19.4-18.6-19.8-49.6-0.8-68.6l22-21.8c18.8-18.8 49.2-18.8 67.8 0l265.4 265.2c18.8 18.8 18.8 49.2 0 67.8l-265.4 265.6c-18.8 18.8-49.2 18.8-67.8 0l-22-21.8c-19-19.2-18.6-50.2 0.8-68.8z" />
<glyph unicode="&#xe92d;" glyph-name="arrow-sq-up" horiz-adv-x="896" d="M0 96v704c0 53 43 96 96 96h704c53 0 96-43 96-96v-704c0-53-43-96-96-96h-704c-53 0-96 43-96 96zM239.2 390.2l144.8 151v-365.2c0-26.6 21.4-48 48-48h32c26.6 0 48 21.4 48 48v365.2l144.8-151c18.6-19.4 49.6-19.8 68.6-0.8l21.8 22c18.8 18.8 18.8 49.2 0 67.8l-265.2 265.4c-18.8 18.8-49.2 18.8-67.8 0l-265.6-265.4c-18.8-18.8-18.8-49.2 0-67.8l21.8-22c19.2-19 50.2-18.6 68.8 0.8z" />
<glyph unicode="&#xe92f;" glyph-name="apple-pay" horiz-adv-x="1280" d="M233.8 643c-15-17.8-39-31.8-63-29.8-3 24 8.8 49.6 22.6 65.2 15 18.2 41.2 31.2 62.6 32.2 2.4-24.8-7.4-49.4-22.2-67.6zM255.6 608.6c-34.8 2-64.6-19.8-81-19.8-16.8 0-42 18.8-69.6 18.2-35.8-0.6-69-20.8-87.2-53-37.6-64.6-9.8-160 26.6-212.6 17.8-26 39-54.6 67-53.6 26.6 1 37 17.2 69 17.2 32.2 0 41.6-17.2 69.6-16.8 29 0.6 47.2 26 65 52 20.2 29.6 28.6 58.2 29 59.8-0.6 0.6-56 21.8-56.6 85.8-0.6 53.6 43.8 79 45.8 80.6-25 37.2-64 41.2-77.6 42.2zM456.4 681v-389.8h60.6v133.2h83.8c76.6 0 130.2 52.6 130.2 128.6s-52.8 128-128.2 128h-146.4zM517 630h69.8c52.6 0 82.6-28 82.6-77.2s-30-77.6-82.8-77.6h-69.6v154.8zM841.4 288.2c38 0 73.2 19.2 89.2 49.8h1.2v-46.8h56v194c0 56.2-45 92.6-114.2 92.6-64.2 0-111.8-36.8-113.6-87.2h54.6c4.6 24 26.8 39.8 57.2 39.8 37 0 57.8-17.2 57.8-49v-21.6l-75.6-4.6c-70.2-4.2-108.2-33-108.2-83 0.2-50.4 39.4-84 95.6-84zM857.8 334.4c-32.2 0-52.8 15.6-52.8 39.2 0 24.6 19.8 38.8 57.6 41l67.2 4.2v-22c0-36.4-31-62.4-72-62.4zM1062.8 185.2c59 0 86.8 22.6 111 90.8l106.2 298h-61.6l-71.2-230.2h-1.2l-71.2 230.2h-63.2l102.4-283.8-5.6-17.2c-9.2-29.2-24.2-40.6-51-40.6-4.8 0-14 0.6-17.8 1v-46.8c3.6-0.8 18.6-1.4 23.2-1.4z" />
<glyph unicode="&#xe936;" glyph-name="backward" d="M23 398.8l384-320c41.2-34.4 105-5.6 105 49.2v640c0 54.8-63.8 83.6-105 49.2l-384-320c-30.6-25.6-30.6-72.8 0-98.4zM535 398.8l384-320c41.2-34.4 105-5.6 105 49.2v640c0 54.8-63.8 83.6-105 49.2l-384-320c-30.6-25.6-30.6-72.8 0-98.4z" />
<glyph unicode="&#xe937;" glyph-name="check-badge" d="M909.856 283.19c29.438-64.856 17.516-143.894-35.818-197.228-53.148-53.148-132.060-65.398-197.228-35.818-25.040-66.684-89.378-114.144-164.81-114.144s-139.77 47.46-164.81 114.144c-65.108-29.552-144.034-17.376-197.228 35.818-53.334 53.334-65.254 132.372-35.818 197.228-66.684 25.040-114.144 89.378-114.144 164.81s47.46 139.77 114.144 164.81c-29.438 64.856-17.516 143.894 35.818 197.228 53.336 53.334 132.374 65.254 197.228 35.818 25.040 66.684 89.378 114.144 164.81 114.144s139.77-47.46 164.81-114.144c64.856 29.438 143.892 17.518 197.228-35.818 53.334-53.334 65.254-132.372 35.818-197.228 66.684-25.040 114.144-89.378 114.144-164.81s-47.46-139.77-114.144-164.81zM438.628 196.118l368 368c12.496 12.496 12.496 32.758 0 45.254l-45.254 45.254c-12.496 12.496-32.758 12.498-45.256 0l-300.118-300.116-140.118 140.118c-12.496 12.496-32.758 12.496-45.256 0l-45.254-45.254c-12.496-12.496-12.496-32.758 0-45.254l208-208c12.498-12.5 32.76-12.5 45.256-0.002z" />
<glyph unicode="&#xe938;" glyph-name="ban" d="M512 944c-273.932 0-496-222.066-496-496s222.068-496 496-496 496 222.068 496 496-222.066 496-496 496zM772.216 708.216c130.896-130.896 140-330.962 41.354-471.274l-512.63 512.626c140.408 98.712 340.452 89.47 471.276-41.352zM251.784 187.784c-130.896 130.896-140 330.962-41.354 471.274l512.63-512.626c-140.406-98.712-340.452-89.472-471.276 41.352z" />
<glyph unicode="&#xe939;" glyph-name="bars" horiz-adv-x="896" d="M32 696h832c17.674 0 32 14.326 32 32v80c0 17.674-14.326 32-32 32h-832c-17.674 0-32-14.326-32-32v-80c0-17.674 14.326-32 32-32zM32 376h832c17.674 0 32 14.326 32 32v80c0 17.674-14.326 32-32 32h-832c-17.674 0-32-14.326-32-32v-80c0-17.674 14.326-32 32-32zM32 56h832c17.674 0 32 14.326 32 32v80c0 17.674-14.326 32-32 32h-832c-17.674 0-32-14.326-32-32v-80c0-17.674 14.326-32 32-32z" />
<glyph unicode="&#xe93a;" glyph-name="birthday-cake" horiz-adv-x="896" d="M896 192c-56.040 0-62.52 64-149 64-86.86 0-93.65-64-149.5-64-55.39 0-62.908 64-149.5 64-85.684 0-94.436-64-149-64-56.296 0-62.404 64-149.5 64-87.094 0-93.306-64-149.5-64v160c0 53 43 96 96 96h32v288h128v-288h128v288h128v-288h128v288h128v-288h32c53 0 96-43 96-96v-160zM896-64h-896v192c86.712 0 93.534 64 149.5 64 55.902 0 62.506-64 149.5-64 85.686 0 94.434 64 149 64 56.296 0 62.402-64 149.5-64 86.714 0 93.534 64 149.5 64 54.976 0 62.504-64 149-64v-192zM192 768c-35.5 0-64 28.5-64 64 0 62 64 46 64 128 24 0 64-59 64-112s-28.5-80-64-80zM448 768c-35.5 0-64 28.5-64 64 0 62 64 46 64 128 24 0 64-59 64-112s-28.5-80-64-80zM704 768c-35.5 0-64 28.5-64 64 0 62 64 46 64 128 24 0 64-59 64-112s-28.5-80-64-80z" />
<glyph unicode="&#xe93b;" glyph-name="book" horiz-adv-x="896" d="M896 240v672c0 26.6-21.4 48-48 48h-656c-106 0-192-86-192-192v-640c0-106 86-192 192-192h656c26.6 0 48 21.4 48 48v32c0 15-7 28.6-17.8 37.4-8.4 30.8-8.4 118.6 0 149.4 10.8 8.6 17.8 22.2 17.8 37.2zM256 692c0 6.6 5.4 12 12 12h424c6.6 0 12-5.4 12-12v-40c0-6.6-5.4-12-12-12h-424c-6.6 0-12 5.4-12 12v40zM256 564c0 6.6 5.4 12 12 12h424c6.6 0 12-5.4 12-12v-40c0-6.6-5.4-12-12-12h-424c-6.6 0-12 5.4-12 12v40zM762.8 64h-570.8c-35.4 0-64 28.6-64 64 0 35.2 28.8 64 64 64h570.8c-3.8-34.2-3.8-93.8 0-128z" />
<glyph unicode="&#xe93c;" glyph-name="briefcase" d="M640 384h384v-288c0-53.020-42.98-96-96-96h-832c-53.020 0-96 42.98-96 96v288h384v-40c0-13.254 10.746-24 24-24h208c13.254 0 24 10.746 24 24v40zM1024 608v-160h-1024v160c0 53.020 42.98 96 96 96h160v96c0 53.020 42.98 96 96 96h320c53.020 0 96-42.98 96-96v-96h160c53.020 0 96-42.98 96-96zM640 768h-256v-64h256v64z" />
<glyph unicode="&#xe93d;" glyph-name="bug" d="M1023.976 382.2c-0.956-34.86-30.434-62.2-65.306-62.2h-110.67v-32c0-43.728-9.764-85.168-27.2-122.29l120.456-120.456c24.992-24.994 24.992-65.516 0-90.51-24.996-24.994-65.518-24.992-90.512 0l-109.472 109.472c-49.5-40.146-112.57-64.216-181.272-64.216v488c0 13.254-10.746 24-24 24h-48c-13.254 0-24-10.746-24-24v-488c-68.702 0-131.772 24.070-181.272 64.216l-109.472-109.472c-24.996-24.994-65.518-24.992-90.512 0-24.992 24.994-24.992 65.516 0 90.51l120.456 120.456c-17.436 37.122-27.2 78.562-27.2 122.29v32h-110.668c-34.872 0-64.35 27.34-65.306 62.2-0.994 36.168 28.030 65.8 63.974 65.8h112v117.49l-93.256 93.256c-24.992 24.994-24.992 65.516 0 90.51 24.996 24.994 65.516 24.994 90.512 0l109.254-109.256h458.978l109.254 109.254c24.996 24.994 65.516 24.994 90.512 0 24.992-24.994 24.992-65.516 0-90.51l-93.254-93.254v-117.49h112c35.944 0 64.968-29.632 63.976-65.8zM514 960c-123.712 0-224-100.288-224-224h448c0 123.712-100.288 224-224 224z" />
<glyph unicode="&#xe93f;" glyph-name="vh-bus" d="M1024 656v-160c0-26.51-21.49-48-48-48h-16v-336c0-26.51-21.49-48-48-48h-16v-80c0-26.51-21.49-48-48-48h-96c-26.51 0-48 21.49-48 48v80h-384v-80c0-26.51-21.49-48-48-48h-96c-26.51 0-48 21.49-48 48v80h-16c-26.51 0-48 21.49-48 48v336h-16c-26.51 0-48 21.49-48 48v160c0 26.51 21.49 48 48 48h16v96c0 88.366 200.576 160 448 160s448-71.634 448-160v-96h16c26.51 0 48-21.49 48-48zM224 320c-44.182 0-80-35.818-80-80s35.818-80 80-80 80 35.818 80 80-35.818 80-80 80zM800 320c-44.182 0-80-35.818-80-80s35.818-80 80-80 80 35.818 80 80-35.818 80-80 80zM864 432v288c0 26.51-21.49 48-48 48h-608c-26.51 0-48-21.49-48-48v-288c0-26.51 21.49-48 48-48h608c26.51 0 48 21.49 48 48z" />
<glyph unicode="&#xe940;" glyph-name="calculator" horiz-adv-x="896" d="M0 32v832c0 53.020 42.98 96 96 96h704c53.020 0 96-42.98 96-96v-832c0-53.020-42.98-96-96-96h-704c-53.020 0-96 42.98-96 96zM768 600v208c0 13.254-10.746 24-24 24h-592c-13.254 0-24-10.746-24-24v-208c0-13.254 10.746-24 24-24h592c13.254 0 24 10.746 24 24zM256 344v80c0 13.254-10.746 24-24 24h-80c-13.254 0-24-10.746-24-24v-80c0-13.254 10.746-24 24-24h80c13.254 0 24 10.746 24 24zM768 88v336c0 13.254-10.746 24-24 24h-80c-13.254 0-24-10.746-24-24v-336c0-13.254 10.746-24 24-24h80c13.254 0 24 10.746 24 24zM256 88v80c0 13.254-10.746 24-24 24h-80c-13.254 0-24-10.746-24-24v-80c0-13.254 10.746-24 24-24h80c13.254 0 24 10.746 24 24zM512 344v80c0 13.254-10.746 24-24 24h-80c-13.254 0-24-10.746-24-24v-80c0-13.254 10.746-24 24-24h80c13.254 0 24 10.746 24 24zM512 88v80c0 13.254-10.746 24-24 24h-80c-13.254 0-24-10.746-24-24v-80c0-13.254 10.746-24 24-24h80c13.254 0 24 10.746 24 24z" />
<glyph unicode="&#xe942;" glyph-name="camera-alt" d="M1024 672v-576c0-53-43-96-96-96h-832c-53 0-96 43-96 96v576c0 53 43 96 96 96h176l24.6 65.8c14 37.4 49.8 62.2 89.8 62.2h251c40 0 75.8-24.8 89.8-62.2l24.8-65.8h176c53 0 96-43 96-96zM752 384c0 132.4-107.6 240-240 240s-240-107.6-240-240 107.6-240 240-240 240 107.6 240 240zM688 384c0-97-79-176-176-176s-176 79-176 176 79 176 176 176 176-79 176-176zM448 384c0 35.2 28.8 64 64 64 17.6 0 32 14.4 32 32s-14.4 32-32 32c-70.6 0-128-57.4-128-128 0-17.6 14.4-32 32-32s32 14.4 32 32z" />
<glyph unicode="&#xe943;" glyph-name="camera-retro" d="M96 896c-53 0-96-43-96-96v-704c0-53 43-96 96-96h832c53 0 96 43 96 96v704c0 53-43 96-96 96h-832zM96 832h212c6.6 0 12-5.4 12-12v-40c0-6.6-5.4-12-12-12h-232c-6.6 0-12 5.4-12 12v20c0 17.6 14.4 32 32 32zM948 640h-872c-6.6 0-12 5.4-12 12v72c0 6.6 5.4 12 12 12h276l60.4 90.6c2.2 3.4 6 5.4 10 5.4h505.6c17.6 0 32-14.4 32-32v-148c0-6.6-5.4-12-12-12zM512 112c-132.4 0-240 107.6-240 240s107.6 240 240 240 240-107.6 240-240-107.6-240-240-240zM512 528c-97 0-176-79-176-176s79-176 176-176 176 79 176 176-79 176-176 176zM416 320c-17.6 0-32 14.4-32 32 0 70.6 57.4 128 128 128 17.6 0 32-14.4 32-32s-14.4-32-32-32c-35.2 0-64-28.8-64-64 0-17.6-14.4-32-32-32z" />
<glyph unicode="&#xe945;" glyph-name="caret-circle-down" d="M1008 448c0-274-222-496-496-496s-496 222-496 496 222 496 496 496 496-222 496-496zM249 503l246-246c9.4-9.4 24.6-9.4 34 0l246 246c15.2 15.2 4.4 41-17 41h-492c-21.4 0-32.2-25.8-17-41z" />
<glyph unicode="&#xe946;" glyph-name="caret-circle-left" d="M512-48c-274 0-496 222-496 496s222 496 496 496 496-222 496-496-222-496-496-496zM567 711l-246-246c-9.4-9.4-9.4-24.6 0-34l246-246c15.2-15.2 41-4.4 41 17v492c0 21.4-25.8 32.2-41 17z" />
<glyph unicode="&#xe947;" glyph-name="caret-circle-right" d="M512 944c274 0 496-222 496-496s-222-496-496-496-496 222-496 496 222 496 496 496zM457 185l246 246c9.4 9.4 9.4 24.6 0 34l-246 246c-15.2 15.2-41 4.4-41-17v-492c0-21.4 25.8-32.2 41-17z" />
<glyph unicode="&#xe948;" glyph-name="caret-circle-up" d="M16 448c0 274 222 496 496 496s496-222 496-496-222-496-496-496-496 222-496 496zM775 393l-246 246c-9.4 9.4-24.6 9.4-34 0l-246-246c-15.2-15.2-4.4-41 17-41h492c21.4 0 32.2 25.8 17 41z" />
<glyph unicode="&#xe949;" glyph-name="caret-down" horiz-adv-x="640" d="M62.6 576h514.6c35.6 0 53.4-43 28.2-68.2l-257.2-257.4c-15.6-15.6-41-15.6-56.6 0l-257.2 257.4c-25.2 25.2-7.4 68.2 28.2 68.2z" />
<glyph unicode="&#xe94a;" glyph-name="caret-left" horiz-adv-x="384" d="M384 705.324v-514.648c0-35.636-43.086-53.482-68.284-28.284l-257.324 257.324c-15.62 15.62-15.62 40.948 0 56.568l257.324 257.324c25.198 25.2 68.284 7.352 68.284-28.284z" />
<glyph unicode="&#xe94b;" glyph-name="caret-right" horiz-adv-x="384" d="M0 190.676v514.648c0 35.636 43.086 53.482 68.284 28.284l257.324-257.324c15.62-15.62 15.62-40.948 0-56.568l-257.324-257.324c-25.198-25.2-68.284-7.352-68.284 28.284z" />
<glyph unicode="&#xe94c;" glyph-name="caret-sq-down" horiz-adv-x="896" d="M896 800v-704c0-53-43-96-96-96h-704c-53 0-96 43-96 96v704c0 53 43 96 96 96h704c53 0 96-43 96-96zM185 519l246-246c9.4-9.4 24.6-9.4 34 0l246 246c15.2 15.2 4.4 41-17 41h-492c-21.4 0-32.2-25.8-17-41z" />
<glyph unicode="&#xe94d;" glyph-name="caret-sq-left" horiz-adv-x="896" d="M800 0h-704c-53.020 0-96 42.98-96 96v704c0 53.020 42.98 96 96 96h704c53.020 0 96-42.98 96-96v-704c0-53.020-42.98-96-96-96zM519.030 711.030l-246.060-246.060c-9.372-9.372-9.372-24.568 0-33.942l246.058-246.058c15.12-15.12 40.97-4.412 40.97 16.97v492.118c0.002 21.382-25.85 32.090-40.968 16.972z" />
<glyph unicode="&#xe94e;" glyph-name="caret-sq-right" horiz-adv-x="896" d="M96 896h704c53.020 0 96-42.98 96-96v-704c0-53.020-42.98-96-96-96h-704c-53.020 0-96 42.98-96 96v704c0 53.020 42.98 96 96 96zM376.97 184.97l246.058 246.058c9.372 9.372 9.372 24.568 0 33.942l-246.058 246.060c-15.12 15.12-40.97 4.412-40.97-16.97v-492.118c0-21.382 25.852-32.090 40.97-16.972z" />
<glyph unicode="&#xe94f;" glyph-name="caret-sq-up" horiz-adv-x="896" d="M0 96v704c0 53.020 42.98 96 96 96h704c53.020 0 96-42.98 96-96v-704c0-53.020-42.98-96-96-96h-704c-53.020 0-96 42.98-96 96zM711.030 376.97l-246.060 246.060c-9.372 9.372-24.568 9.372-33.942 0l-246.058-246.060c-15.12-15.12-4.412-40.97 16.97-40.97h492.118c21.382 0 32.090 25.852 16.972 40.97z" />
<glyph unicode="&#xe950;" glyph-name="caret-up" horiz-adv-x="640" d="M577.324 256h-514.648c-35.636 0-53.482 43.086-28.284 68.284l257.324 257.324c15.62 15.62 40.948 15.62 56.568 0l257.324-257.324c25.2-25.198 7.352-68.284-28.284-68.284z" />
<glyph unicode="&#xe951;" glyph-name="cart-arrow-down" horiz-adv-x="1152" d="M1009.434 320h-586.29l13.090-64h536.836c30.802 0 53.632-28.602 46.806-58.638l-11.034-48.552c37.382-18.146 63.158-56.466 63.158-100.81 0-62.404-51.038-112.888-113.648-111.988-59.646 0.858-108.7 49.262-110.31 108.894-0.88 32.574 12.17 62.098 33.606 83.096h-419.296c20.754-20.332 33.648-48.654 33.648-80.002 0-63.626-53.056-114.862-117.34-111.876-57.080 2.65-103.502 48.77-106.502 105.834-2.316 44.068 20.872 82.91 56.102 103.172l-140.494 686.87h-139.766c-26.51 0-48 21.49-48 48v32c0 26.51 21.49 48 48 48h205.058c22.802 0 42.456-16.042 47.026-38.38l18.332-89.62h785.564c30.802 0 53.632-28.602 46.806-58.638l-94.546-416c-4.966-21.854-24.394-37.362-46.806-37.362zM806.058 576h-86.058v120c0 13.254-10.746 24-24 24h-48c-13.254 0-24-10.746-24-24v-120h-86.058c-21.382 0-32.090-25.852-16.97-40.97l134.058-134.058c9.372-9.372 24.568-9.372 33.942 0l134.058 134.058c15.118 15.118 4.41 40.97-16.972 40.97z" />
<glyph unicode="&#xe952;" glyph-name="cart-plus" horiz-adv-x="1152" d="M1009.434 320h-586.29l13.090-64h536.836c30.802 0 53.632-28.602 46.806-58.638l-11.034-48.552c37.382-18.146 63.158-56.466 63.158-100.81 0-62.404-51.038-112.888-113.648-111.988-59.646 0.858-108.7 49.262-110.31 108.894-0.88 32.574 12.17 62.098 33.606 83.096h-419.296c20.754-20.332 33.648-48.654 33.648-80.002 0-63.626-53.056-114.862-117.34-111.876-57.080 2.65-103.502 48.77-106.502 105.834-2.316 44.068 20.872 82.91 56.102 103.172l-140.494 686.87h-139.766c-26.51 0-48 21.49-48 48v32c0 26.51 21.49 48 48 48h205.058c22.802 0 42.456-16.042 47.026-38.38l18.332-89.62h785.564c30.802 0 53.632-28.602 46.806-58.638l-94.546-416c-4.966-21.854-24.394-37.362-46.806-37.362zM816 624h-96v80c0 17.674-14.326 32-32 32h-32c-17.674 0-32-14.326-32-32v-80h-96c-17.674 0-32-14.326-32-32v-32c0-17.674 14.326-32 32-32h96v-80c0-17.674 14.326-32 32-32h32c17.674 0 32 14.326 32 32v80h96c17.674 0 32 14.326 32 32v32c0 17.674-14.326 32-32 32z" />
<glyph unicode="&#xe953;" glyph-name="certificate" d="M917.244 448.16l91.97 90.010c27.416 25.954 14.632 72.078-21.328 80.678l-125.3 31.98 35.322 124.030c9.982 35.676-23.658 69.326-59.322 59.342l-123.988-35.334-31.968 125.342c-8.46 35.398-55.1 48.344-80.65 21.336l-89.98-92.684-89.978 92.682c-25.26 26.702-72.094 14.468-80.65-21.336l-31.968-125.342-123.99 35.334c-35.674 9.988-69.302-23.674-59.322-59.342l35.322-124.030-125.3-31.98c-35.976-8.602-48.734-54.734-21.33-80.676l91.97-90.010-91.97-90.008c-27.416-25.954-14.632-72.078 21.328-80.678l125.3-31.98-35.322-124.030c-9.982-35.676 23.658-69.326 59.322-59.342l123.988 35.334 31.968-125.342c8.878-37.15 55.392-48.036 80.65-21.336l89.982 92.002 89.978-92.002c25-26.976 71.974-14.972 80.65 21.336l31.968 125.342 123.988-35.334c35.672-9.988 69.302 23.674 59.322 59.342l-35.322 124.030 125.3 31.98c35.974 8.604 48.732 54.734 21.328 80.678l-91.968 90.008z" />
<glyph unicode="&#xe954;" glyph-name="check" d="M347.796 81.192l-332.8 332.8c-19.994 19.994-19.994 52.412 0 72.408l72.406 72.408c19.994 19.996 52.414 19.996 72.408 0l224.19-224.188 480.19 480.188c19.994 19.994 52.414 19.994 72.408 0l72.406-72.408c19.994-19.994 19.994-52.412 0-72.408l-588.8-588.802c-19.996-19.994-52.414-19.994-72.408 0.002z" />
<glyph unicode="&#xe955;" glyph-name="check-circle" d="M1008 448c0-273.934-222.066-496-496-496s-496 222.066-496 496 222.066 496 496 496 496-222.066 496-496zM454.628 185.372l368 368c12.496 12.496 12.496 32.758 0 45.254l-45.254 45.254c-12.496 12.498-32.758 12.498-45.256 0l-300.118-300.116-140.118 140.118c-12.496 12.496-32.758 12.496-45.256 0l-45.254-45.254c-12.496-12.496-12.496-32.758 0-45.254l208-208c12.498-12.498 32.758-12.498 45.256-0.002z" />
<glyph unicode="&#xe956;" glyph-name="check-square" horiz-adv-x="896" d="M800 0h-704c-53.020 0-96 42.98-96 96v704c0 53.020 42.98 96 96 96h704c53.020 0 96-42.98 96-96v-704c0-53.020-42.98-96-96-96zM390.628 196.118l368 368c12.496 12.496 12.496 32.758 0 45.254l-45.254 45.254c-12.496 12.496-32.758 12.498-45.256 0l-300.118-300.116-140.118 140.118c-12.496 12.496-32.758 12.496-45.256 0l-45.254-45.254c-12.496-12.496-12.496-32.758 0-45.254l208-208c12.498-12.5 32.758-12.5 45.256-0.002z" />
<glyph unicode="&#xe957;" glyph-name="chevron-circle-down" d="M1008 448c0-274-222-496-496-496s-496 222-496 496 222 496 496 496 496-222 496-496zM546 220.2l271 271c18.8 18.8 18.8 49.2 0 67.8l-34 34c-18.8 18.8-49.2 18.8-67.8 0l-203.2-203.2-203.2 203.2c-18.8 18.8-49.2 18.8-67.8 0l-34-34c-18.8-18.8-18.8-49.2 0-67.8l271-271c18.8-18.8 49.2-18.8 68 0z" />
<glyph unicode="&#xe958;" glyph-name="chevron-circle-left" d="M512-48c-274 0-496 222-496 496s222 496 496 496 496-222 496-496-222-496-496-496zM284.2 414l271-271c18.8-18.8 49.2-18.8 67.8 0l34 34c18.8 18.8 18.8 49.2 0 67.8l-203.2 203.2 203.2 203.2c18.8 18.8 18.8 49.2 0 67.8l-34 34c-18.8 18.8-49.2 18.8-67.8 0l-271-271c-18.8-18.8-18.8-49.2 0-68z" />
<glyph unicode="&#xe959;" glyph-name="chevron-circle-right" d="M512 944c274 0 496-222 496-496s-222-496-496-496-496 222-496 496 222 496 496 496zM739.8 482l-271 271c-18.8 18.8-49.2 18.8-67.8 0l-34-34c-18.8-18.8-18.8-49.2 0-67.8l203.2-203.2-203.2-203.2c-18.8-18.8-18.8-49.2 0-67.8l34-34c18.8-18.8 49.2-18.8 67.8 0l271 271c18.8 18.8 18.8 49.2 0 68z" />
<glyph unicode="&#xe95a;" glyph-name="chevron-circle-up" d="M16 448c0 274 222 496 496 496s496-222 496-496-222-496-496-496-496 222-496 496zM478 675.8l-271-271c-18.8-18.8-18.8-49.2 0-67.8l34-34c18.8-18.8 49.2-18.8 67.8 0l203.2 203.2 203.2-203.2c18.8-18.8 49.2-18.8 67.8 0l34 34c18.8 18.8 18.8 49.2 0 67.8l-271 271c-18.8 18.8-49.2 18.8-68 0z" />
<glyph unicode="&#xe95b;" glyph-name="ch-double-down" horiz-adv-x="896" d="M414 5l-388.6 388.8c-18.8 18.8-18.8 49.2 0 67.8l45.4 45.4c18.8 18.8 49 18.8 67.8 0l309.4-308 309.4 308c18.8 18.6 49 18.6 67.8 0l45.4-45.4c18.8-18.8 18.8-49.2 0-67.8l-388.6-388.8c-18.8-18.6-49.2-18.6-68 0zM482 389l388.6 388.8c18.8 18.8 18.8 49.2 0 67.8l-45.4 45.4c-18.8 18.8-49 18.8-67.8 0l-309.4-308-309.4 308c-18.8 18.6-49 18.6-67.8 0l-45.4-45.4c-18.8-18.8-18.8-49.2 0-67.8l388.6-388.8c18.8-18.6 49.2-18.6 68 0z" />
<glyph unicode="&#xe95c;" glyph-name="ch-double-left" d="M69 482l388.8 388.6c18.8 18.8 49.2 18.8 67.8 0l45.4-45.4c18.8-18.8 18.8-49 0-67.8l-308-309.4 308-309.4c18.6-18.8 18.6-49 0-67.8l-45.4-45.4c-18.8-18.8-49.2-18.8-67.8 0l-388.8 388.6c-18.6 18.8-18.6 49.2 0 68zM453 414l388.6-388.6c18.8-18.8 49.2-18.8 67.8 0l45.4 45.4c18.8 18.8 18.8 49 0 67.8l-307.8 309.4 308 309.4c18.6 18.8 18.6 49 0 67.8l-45.4 45.4c-18.8 18.8-49.2 18.8-67.8 0l-388.8-388.6c-18.6-18.8-18.6-49.2 0-68z" />
<glyph unicode="&#xe95d;" glyph-name="ch-double-right" d="M955 414l-388.8-388.6c-18.8-18.8-49.2-18.8-67.8 0l-45.4 45.4c-18.8 18.8-18.8 49 0 67.8l308 309.4-308 309.4c-18.6 18.8-18.6 49 0 67.8l45.4 45.4c18.8 18.8 49.2 18.8 67.8 0l388.8-388.6c18.6-18.8 18.6-49.2 0-68zM571 482l-388.8 388.6c-18.8 18.8-49.2 18.8-67.8 0l-45.4-45.4c-18.8-18.8-18.8-49 0-67.8l308-309.4-308-309.4c-18.6-18.8-18.6-49 0-67.8l45.4-45.4c18.8-18.8 49.2-18.8 67.8 0l388.8 388.6c18.6 18.8 18.6 49.2 0 68z" />
<glyph unicode="&#xe95e;" glyph-name="ch-double-up" horiz-adv-x="896" d="M482 891l388.6-388.6c18.8-18.8 18.8-49.2 0-67.8l-45.4-45.4c-18.8-18.8-49-18.8-67.8 0l-309.4 307.8-309.4-308c-18.8-18.6-49-18.6-67.8 0l-45.4 45.4c-18.8 18.8-18.8 49.2 0 67.8l388.6 388.8c18.8 18.6 49.2 18.6 68 0zM414 507l-388.6-388.8c-18.8-18.8-18.8-49.2 0-67.8l45.4-45.4c18.8-18.8 49-18.8 67.8 0l309.4 308 309.4-308c18.8-18.6 49-18.6 67.8 0l45.4 45.4c18.8 18.8 18.8 49.2 0 67.8l-388.6 388.8c-18.8 18.6-49.2 18.6-68 0z" />
<glyph unicode="&#xe95f;" glyph-name="chevron-down" horiz-adv-x="896" d="M414.058 197.048l-388.686 388.688c-18.746 18.746-18.746 49.138 0 67.882l45.334 45.334c18.714 18.714 49.044 18.75 67.802 0.080l309.492-308.042 309.49 308.042c18.758 18.67 49.088 18.634 67.802-0.080l45.334-45.334c18.746-18.746 18.746-49.138 0-67.882l-388.684-388.688c-18.746-18.744-49.138-18.744-67.884 0z" />
<glyph unicode="&#xe960;" glyph-name="chevron-left" horiz-adv-x="640" d="M69.040 481.94l388.7 388.68c18.74 18.74 49.14 18.74 67.88 0l45.34-45.34c18.72-18.72 18.74-49.040 0.080-67.8l-308.060-309.48 308.040-309.5c18.68-18.76 18.64-49.080-0.080-67.8l-45.34-45.34c-18.74-18.74-49.14-18.74-67.88 0l-388.68 388.7c-18.74 18.74-18.74 49.14 0 67.88z" />
<glyph unicode="&#xe961;" glyph-name="chevron-right" horiz-adv-x="640" d="M570.952 414.058l-388.688-388.686c-18.746-18.746-49.138-18.746-67.882 0l-45.334 45.334c-18.714 18.714-18.75 49.044-0.080 67.802l308.042 309.492-308.042 309.49c-18.67 18.758-18.634 49.088 0.080 67.802l45.334 45.334c18.746 18.746 49.138 18.746 67.882 0l388.686-388.686c18.746-18.744 18.746-49.136 0.002-67.882z" />
<glyph unicode="&#xe962;" glyph-name="chevron-square-down" horiz-adv-x="896" d="M896 800v-704c0-53.020-42.98-96-96-96h-704c-53.020 0-96 42.98-96 96v704c0 53.020 42.98 96 96 96h704c53.020 0 96-42.98 96-96zM481.942 236.118l271.030 271.030c18.746 18.746 18.746 49.138 0 67.882l-33.942 33.942c-18.746 18.746-49.138 18.746-67.882 0l-203.148-203.148-203.146 203.146c-18.746 18.746-49.138 18.746-67.882 0l-33.942-33.942c-18.746-18.746-18.746-49.138 0-67.882l271.030-271.030c18.744-18.744 49.136-18.744 67.882 0.002z" />
<glyph unicode="&#xe963;" glyph-name="chevron-square-left" horiz-adv-x="896" d="M800 0h-704c-53.020 0-96 42.98-96 96v704c0 53.020 42.98 96 96 96h704c53.020 0 96-42.98 96-96v-704c0-53.020-42.98-96-96-96zM236.118 414.058l271.030-271.030c18.746-18.746 49.138-18.746 67.882 0l33.942 33.942c18.746 18.746 18.746 49.138 0 67.882l-203.148 203.148 203.148 203.146c18.746 18.746 18.746 49.138 0 67.882l-33.942 33.942c-18.746 18.746-49.138 18.746-67.882 0l-271.030-271.028c-18.746-18.746-18.746-49.138 0-67.884z" />
<glyph unicode="&#xe964;" glyph-name="chevron-square-right" horiz-adv-x="896" d="M96 896h704c53.020 0 96-42.98 96-96v-704c0-53.020-42.98-96-96-96h-704c-53.020 0-96 42.98-96 96v704c0 53.020 42.98 96 96 96zM659.882 481.942l-271.028 271.028c-18.746 18.746-49.138 18.746-67.882 0l-33.942-33.942c-18.746-18.746-18.746-49.138 0-67.882l203.146-203.146-203.146-203.146c-18.746-18.746-18.746-49.138 0-67.882l33.942-33.942c18.746-18.746 49.138-18.746 67.882 0l271.030 271.030c18.744 18.744 18.744 49.136-0.002 67.882z" />
<glyph unicode="&#xe965;" glyph-name="chevron-square-up" horiz-adv-x="896" d="M0 96v704c0 53.020 42.98 96 96 96h704c53.020 0 96-42.98 96-96v-704c0-53.020-42.98-96-96-96h-704c-53.020 0-96 42.98-96 96zM414.058 659.882l-271.028-271.028c-18.746-18.746-18.746-49.138 0-67.882l33.942-33.942c18.746-18.746 49.138-18.746 67.882 0l203.146 203.146 203.146-203.148c18.746-18.746 49.138-18.746 67.882 0l33.942 33.942c18.746 18.746 18.746 49.138 0 67.882l-271.028 271.030c-18.746 18.746-49.138 18.746-67.884 0z" />
<glyph unicode="&#xe966;" glyph-name="chevron-up" horiz-adv-x="896" d="M481.942 698.952l388.686-388.686c18.746-18.746 18.746-49.138 0-67.882l-45.334-45.334c-18.714-18.714-49.044-18.75-67.802-0.080l-309.492 308.040-309.49-308.042c-18.758-18.67-49.088-18.634-67.802 0.080l-45.334 45.334c-18.746 18.746-18.746 49.138 0 67.882l388.686 388.686c18.744 18.746 49.136 18.746 67.882 0.002z" />
<glyph unicode="&#xe967;" glyph-name="child" horiz-adv-x="768" d="M240 816c0 79.53 64.47 144 144 144s144-64.47 144-144c0-79.528-64.47-144-144-144s-144 64.472-144 144zM749.254 813.254c-24.992 24.994-65.516 24.994-90.508 0l-173.256-173.254h-202.982l-173.254 173.254c-24.992 24.994-65.516 24.994-90.508 0-24.994-24.994-24.994-65.516 0-90.51l189.254-189.252v-533.492c0-35.346 28.654-64 64-64h32c35.346 0 64 28.654 64 64v224h32v-224c0-35.346 28.654-64 64-64h32c35.346 0 64 28.654 64 64v533.492l189.254 189.254c24.994 24.994 24.994 65.514 0 90.508z" />
<glyph unicode="&#xe968;" glyph-name="circle-notch" d="M576 881.888v-33.318c0-21.608 14.562-40.318 35.372-46.132 155.036-43.306 268.628-185.474 268.628-354.438 0-203.378-164.59-368-368-368-203.378 0-368 164.59-368 368 0 168.94 113.572 311.128 268.624 354.438 20.814 5.814 35.376 24.528 35.376 46.138v33.296c0 31.418-29.668 54.306-60.092 46.468-214.702-55.304-373.12-250.752-371.902-483.004 1.44-274.104 222.954-493.912 497.062-493.334 273.442 0.576 494.932 222.422 494.932 495.998 0 231.266-158.28 425.558-372.422 480.472-30.222 7.75-59.578-15.384-59.578-46.584z" />
<glyph unicode="&#xe96a;" glyph-name="code" horiz-adv-x="1280" d="M557.8-63l-122 35.4c-12.8 3.6-20 17-16.4 29.8l273 940.4c3.6 12.8 17 20 29.8 16.4l122-35.4c12.8-3.6 20-17 16.4-29.8l-273-940.4c-3.8-12.8-17-20.2-29.8-16.4zM329.8 161.4l87 92.8c9.2 9.8 8.6 25.4-1.6 34.4l-181.2 159.4 181.2 159.4c10.2 9 11 24.6 1.6 34.4l-87 92.8c-9 9.6-24.2 10.2-34 1l-288.2-270c-10.2-9.4-10.2-25.6 0-35l288.2-270.2c9.8-9.2 25-8.8 34 1zM984.2 160.2l288.2 270.2c10.2 9.4 10.2 25.6 0 35l-288.2 270.4c-9.6 9-24.8 8.6-34-1l-87-92.8c-9.2-9.8-8.6-25.4 1.6-34.4l181.2-159.6-181.2-159.4c-10.2-9-11-24.6-1.6-34.4l87-92.8c9-9.8 24.2-10.2 34-1.2z" />
<glyph unicode="&#xe96b;" glyph-name="aws" d="M522.4 687.8c-28-115-26.2-108.8-51.6-214-3.2-13-8.2-16.8-21.4-17h-28.8c-11.6 0.2-16.4 3.2-19.8 14.6-24.6 78.8-57.6 188.2-79.8 261.4-8.2 27-2.8 26.4 18.6 25.8 7.4-0.2 14.6 0 22 0 10.2-0.2 15.4-4 18.2-14.2 7.2-25.8 12-45.6 53.2-208.2 0.8-3.2 1.8-6.2 2.8-9.2h2.2c1 4 2.2 7.8 3.2 11.8 15.6 65.8 31 131.8 46.6 197.6 4.8 20.4 13.4 22.4 34 22.4h15.2c13.8-0.2 18-3 21.4-16.6 12-46.8 47-203.6 53.4-220.8 10.2 36.6-3.6-15.8 57 218 4.2 16.2 8.2 19.4 24.6 19.4h25.4c10.8-0.2 14-3.6 11.4-14.2-4.8-19-5.8-19.8-82.6-265.8-6.2-19.8-8.4-21.6-29.2-21.6h-21.2c-14.6 0-18.4 2.6-22 16.8-8.6 32.4-46.6 191.4-52.8 213.8zM250.8 465.4c8.4-11.6 16.2-12.6 28.2-4.8l12.6 8.4c13.6 9 14.6 12.6 7.2 27-8.6 16.8-12.8 34.6-12.6 53.8 0 6.2 1.2 111.4-1.8 133.6-5.4 38.6-25 65.6-63.4 77.4-21.4 6.8-43.4 6.6-65.4 6-30.2-0.8-58.8-9.2-85.6-22.8-3.6-1.8-7.4-6.2-8.2-9.8-1.6-7.8-2.2-16.2-1.4-24.2 1.2-11.8 5.2-14 16.4-10.2 10.2 3.4 20 7.8 30.2 10.8 29 8.8 58.4 12.8 88.2 3.4 14.2-4.4 23.4-13.8 28.6-27.6 6-15.8 4.8-32.2 4.8-48.4 0-11-0.2-11-11-9-27.8 5.2-55.4 10-83.8 6.2-30.4-4.2-57.2-14.6-76.4-40-18.2-24-20-51.2-14.8-79 5.6-30 23.6-51.4 52.8-60.8 41.2-13.4 80.2-6.6 115.4 19 7.6 5.6 14.4 12.4 22.2 19 6.2-10 11.6-19.4 17.8-28zM220.2 588.6c6-0.8 9-3.8 8.6-10.2-0.4-7.6 0.2-15.2-0.6-22.8-2.4-23.4-15.4-39.4-35.8-49.8-16.4-8.4-33.8-11.6-52.2-10-30.4 2.6-42 26.2-39.2 52.6 2.6 25.2 17 39.2 43 43.6 27.6 4.8 32 2.2 76.2-3.4zM917.8 458.4c42.6 17.2 65.8 52.4 58.4 100-4.4 29.2-23.6 48.4-50.4 59-29.4 11.8-67.6 20.6-96.2 36.4-8.8 4.8-14.8 12.6-15.2 23.8-0.8 22.2 8.4 34.4 30.8 39.6 18.6 4.2 37.6 4.4 56.2 0.8 14.6-2.8 28.6-8.4 42.8-12.6 5.6-1.8 11.8-4.2 15.6 3.2 7.6 14.6 0.8 37.4-14.6 43.6-45 18-91 23.2-136.4 3.2-29.2-12.8-49.2-34.8-52-68.4-3.2-38.6 13.8-66.8 48.2-83.4 15.4-7.4 32.2-11.8 48.4-17.8s32.4-11.6 48.2-18.2c24.6-10.6 23.2-48.4 2.4-60-55.4-30.6-129.8 4.8-138.4 7.6-6.6 2.2-10.6-0.4-12.6-7.4-6-22.6 1.4-37.6 23.2-45.4 43.4-15.8 99.2-21 141.6-4zM592 133c101.6 11.6 197.4 41.6 285.4 94 16 9.4 31 20.6 46.2 31.4 14.6 10.4 6.4 36.8-22.6 24.4-108.8-46.4-222.4-72.2-340.4-77.8-61-3-121.6 0.6-182.2 9.4-126.2 18.4-244.8 58.4-355.2 122.4-4.2 2.4-8.4 5-13 6-9.8 2.2-15.4-9.4-4.8-19.4 48-44.2 100.6-81.6 158.2-111.4 107.4-55.4 221-85.4 342.4-84 28.8 1.6 57.6 1.8 86 5zM941.4 317.4c29.6-1.6 38.8-11.8 31.4-40.4-7.6-29.6-18.6-58.4-27.8-87.6-1.8-5.8-8.4-12.6-1.6-17.6 7.4-5.2 13 2 18 6.6 20.4 19 34.8 42 45 67.6 10.8 26.8 18.6 54.4 17.4 83.8-0.4 12.4-3.6 17.6-15.6 21-10.8 3-22 5.6-33 6.4-43.2 3.6-85-1-124-21.2-6.2-3.2-12-7.4-17.4-11.8-2.2-1.8-6.4-10.6 4.8-12.2 3.8-0.6 7.8 0.2 11.8 0.6 33.8 3.2 57.2 6.6 91 4.8z" />
<glyph unicode="&#xe96c;" glyph-name="behance" horiz-adv-x="1152" d="M464 485.6c63.6 30.4 96.8 76.4 96.8 148 0 141.2-105.2 175.6-226.6 175.6h-334.2v-708.8h343.6c128.8 0 249.8 61.8 249.8 205.8 0 89-42.2 154.8-129.4 179.4zM155.8 688.2h146.2c56.2 0 106.8-15.8 106.8-81 0-60.2-39.4-84.4-95-84.4h-158v165.4zM322.4 220.8h-166.6v195.2h169.8c68.6 0 112-28.6 112-101.2 0-71.6-51.8-94-115.2-94zM1039.4 702.2h-287.4v69.8h287.4v-69.8zM1152 349.6c0 151.8-88.8 278.4-249.8 278.4-156.4 0-262.6-117.6-262.6-271.6 0-159.8 100.6-269.4 262.6-269.4 122.6 0 202 55.2 240.2 172.6h-124.4c-13.4-43.8-68.6-67-111.4-67-82.6 0-126 48.4-126 130.6h370.2c0.6 8.4 1.2 17.4 1.2 26.4zM780.8 412c4.6 67.4 49.4 109.6 117 109.6 70.8 0 106.4-41.6 112.4-109.6h-229.4z" />
<glyph unicode="&#xe96d;" glyph-name="comment" horiz-adv-x="1152" d="M1152 480c0-230-258-416-576-416-96.6 0-187.8 17.2-267.8 47.6-80.6-62.4-179.6-100.6-284.8-111.4-10.4-1.2-20.4 5.6-23 15.4-2.6 10 5.4 16.2 13.2 23.6 38.6 36.8 85.4 65.6 103.8 189.2-73.6 69.8-117.4 157-117.4 251.6 0 229.8 258 416 576 416s576-186.2 576-416z" />
<glyph unicode="&#xe96e;" glyph-name="comment-alt" horiz-adv-x="1152" d="M1152 480c0-230-258-416-576-416-96.6 0-187.8 17.2-267.8 47.6-80.6-62.4-179.6-100.6-284.8-111.4-10.4-1.2-20.4 5.6-23 15.4-2.6 10 5.4 16.2 13.2 23.6 38.6 36.8 85.4 65.6 103.8 189.2-73.6 69.8-117.4 157-117.4 251.6 0 229.8 258 416 576 416s576-186.2 576-416zM320 576c-53 0-96-43-96-96s43-96 96-96 96 43 96 96-43 96-96 96zM576 576c-53 0-96-43-96-96s43-96 96-96 96 43 96 96-43 96-96 96zM832 576c-53 0-96-43-96-96s43-96 96-96 96 43 96 96-43 96-96 96z" />
<glyph unicode="&#xe96f;" glyph-name="comments" horiz-adv-x="1152" d="M448 242.286c-75.198 0-146.054 13.526-208.286 37.4-62.75-49.098-139.738-79.016-221.528-87.592-0.533-0.059-1.152-0.093-1.779-0.094h-0.001c-7.472 0-14.222 4.996-16.034 12.122-1.96 7.922 4.176 12.798 10.252 18.61 30.034 28.878 66.444 51.58 80.684 148.594-57.278 54.902-91.308 123.43-91.308 197.816 0 180.538 200.594 326.858 448 326.858s448-146.318 448-326.858c-0.002-180.664-200.594-326.856-448-326.856zM1142.134 27.938c-27.888 26.254-61.698 46.892-74.92 135.086 137.616 129.136 104.342 313.87-75.348 414.13 0.062-2.668 0.132-5.334 0.132-8.012 0-244.986-259.166-432.788-568.504-422.444 76.242-61.922 187.978-100.984 312.504-100.984 69.828 0 135.622 12.296 193.408 34 58.268-44.634 129.756-71.832 205.706-79.628 7.572-0.79 14.726 3.946 16.54 10.934 1.822 7.202-3.876 11.634-9.518 16.918z" />
<glyph unicode="&#xe970;" glyph-name="copy" horiz-adv-x="896" d="M640 64v-80c0-26.51-21.49-48-48-48h-544c-26.51 0-48 21.49-48 48v736c0 26.51 21.49 48 48 48h144v-592c0-61.758 50.242-112 112-112h336zM640 752v208h-336c-26.51 0-48-21.49-48-48v-736c0-26.51 21.49-48 48-48h544c26.51 0 48 21.49 48 48v528h-208c-26.4 0-48 21.6-48 48zM881.942 814.058l-131.884 131.884c-8.686 8.686-20.686 14.058-33.94 14.058h-12.118v-192h192v12.118c0 13.254-5.372 25.254-14.058 33.94v0z" />
<glyph unicode="&#xe972;" glyph-name="credit-card" horiz-adv-x="1152" d="M0 96c0-53 43-96 96-96h960c53 0 96 43 96 96v352h-1152v-352zM384 232c0 13.2 10.8 24 24 24h272c13.2 0 24-10.8 24-24v-80c0-13.2-10.8-24-24-24h-272c-13.2 0-24 10.8-24 24v80zM128 232c0 13.2 10.8 24 24 24h144c13.2 0 24-10.8 24-24v-80c0-13.2-10.8-24-24-24h-144c-13.2 0-24 10.8-24 24v80zM1152 800v-96h-1152v96c0 53 43 96 96 96h960c53 0 96-43 96-96z" />
<glyph unicode="&#xe973;" glyph-name="credit-card-front" horiz-adv-x="1152" d="M1056 896h-960c-53 0-96-43-96-96v-704c0-53 43-96 96-96h960c53 0 96 43 96 96v704c0 53-43 96-96 96zM384 424c0 13.2 10.8 24 24 24h128c13.2 0 24-10.8 24-24v-80c0-13.2-10.8-24-24-24h-128c-13.2 0-24 10.8-24 24v80zM320 152c0-13.2-10.8-24-24-24h-144c-13.2 0-24 10.8-24 24v16c0 13.2 10.8 24 24 24h144c13.2 0 24-10.8 24-24v-16zM352 344c0-13.2-10.8-24-24-24h-176c-13.2 0-24 10.8-24 24v80c0 13.2 10.8 24 24 24h176c13.2 0 24-10.8 24-24v-80zM704 152c0-13.2-10.8-24-24-24h-272c-13.2 0-24 10.8-24 24v16c0 13.2 10.8 24 24 24h272c13.2 0 24-10.8 24-24v-16zM768 344c0-13.2-10.8-24-24-24h-128c-13.2 0-24 10.8-24 24v80c0 13.2 10.8 24 24 24h128c13.2 0 24-10.8 24-24v-80zM1024 344c0-13.2-10.8-24-24-24h-176c-13.2 0-24 10.8-24 24v80c0 13.2 10.8 24 24 24h176c13.2 0 24-10.8 24-24v-80zM1024 624c0-26.6-21.4-48-48-48h-160c-26.6 0-48 21.4-48 48v96c0 26.6 21.4 48 48 48h160c26.6 0 48-21.4 48-48v-96z" />
<glyph unicode="&#xe974;" glyph-name="desktop-alt" horiz-adv-x="1152" d="M1056 960h-960c-53 0-96-43-96-96v-640c0-53 43-96 96-96h384l-32-96h-144c-26.6 0-48-21.4-48-48s21.4-48 48-48h544c26.6 0 48 21.4 48 48s-21.4 48-48 48h-144l-32 96h384c53 0 96 43 96 96v640c0 53-43 96-96 96zM1024 384h-896v448h896v-448z" />
<glyph unicode="&#xe975;" glyph-name="dollar-sign" horiz-adv-x="640" d="M226.822 621.25c0 46.674 43.072 76.834 109.73 76.834 53.452 0 108.232-24.526 152.922-56.666 11.76-8.458 28.26-4.708 35.15 8.034l47.104 87.098c5.298 9.796 3.192 21.982-5.15 29.36-48.562 42.954-118.27 68.18-182.578 75.612v94.478c0 13.254-10.746 24-24 24h-80c-13.254 0-24-10.746-24-24v-99.664c-117.254-26.58-194.598-111.834-194.598-217.278 0-247.066 369.53-221.62 369.53-338.828 0-39.646-32.622-82.316-104.248-82.316-61.502 0-125.864 31.76-175.696 71.774-10.62 8.528-26.164 6.63-34.318-4.28l-60.778-81.334c-7.254-9.708-6.15-23.314 2.604-31.694 48.098-46.040 118.498-82.51 197.502-95.946v-96.434c0-13.254 10.746-24 24-24h80c13.254 0 24 10.746 24 24v94.876c131.44 20.43 212.352 118.372 212.352 233.032 0.002 239.376-369.528 207.414-369.528 333.342z" />
<glyph unicode="&#xe976;" glyph-name="download" d="M432 960h160c26.6 0 48-21.4 48-48v-336h175.4c35.6 0 53.4-43 28.2-68.2l-304.2-304.4c-15-15-39.6-15-54.6 0l-304.6 304.4c-25.2 25.2-7.4 68.2 28.2 68.2h175.6v336c0 26.6 21.4 48 48 48zM1024 208v-224c0-26.6-21.4-48-48-48h-928c-26.6 0-48 21.4-48 48v224c0 26.6 21.4 48 48 48h293.4l98-98c40.2-40.2 105-40.2 145.2 0l98 98h293.4c26.6 0 48-21.4 48-48zM776 32c0 22-18 40-40 40s-40-18-40-40 18-40 40-40 40 18 40 40zM904 32c0 22-18 40-40 40s-40-18-40-40 18-40 40-40 40 18 40 40z" />
<glyph unicode="&#xe977;" glyph-name="edit" horiz-adv-x="1152" d="M805.2 793.6l180.4-180.4c7.6-7.6 7.6-20 0-27.6l-436.8-436.8-185.6-20.6c-24.8-2.8-45.8 18.2-43 43l20.6 185.6 436.8 436.8c7.6 7.6 20 7.6 27.6 0zM1129.2 839.4l-97.6 97.6c-30.4 30.4-79.8 30.4-110.4 0l-70.8-70.8c-7.6-7.6-7.6-20 0-27.6l180.4-180.4c7.6-7.6 20-7.6 27.6 0l70.8 70.8c30.4 30.6 30.4 80 0 110.4zM768 267.6v-203.6h-640v640h459.6c6.4 0 12.4 2.6 17 7l80 80c15.2 15.2 4.4 41-17 41h-571.6c-53 0-96-43-96-96v-704c0-53 43-96 96-96h704c53 0 96 43 96 96v315.6c0 21.4-25.8 32-41 17l-80-80c-4.4-4.6-7-10.6-7-17z" />
<glyph unicode="&#xe978;" glyph-name="ellipsis-h" d="M656 448c0-79.6-64.4-144-144-144s-144 64.4-144 144 64.4 144 144 144 144-64.4 144-144zM864 592c-79.6 0-144-64.4-144-144s64.4-144 144-144 144 64.4 144 144-64.4 144-144 144zM160 592c-79.6 0-144-64.4-144-144s64.4-144 144-144 144 64.4 144 144-64.4 144-144 144z" />
<glyph unicode="&#xe979;" glyph-name="ellipsis-v" horiz-adv-x="384" d="M192 592c79.6 0 144-64.4 144-144s-64.4-144-144-144-144 64.4-144 144 64.4 144 144 144zM48 800c0-79.6 64.4-144 144-144s144 64.4 144 144-64.4 144-144 144-144-64.4-144-144zM48 96c0-79.6 64.4-144 144-144s144 64.4 144 144-64.4 144-144 144-144-64.4-144-144z" />
<glyph unicode="&#xe97a;" glyph-name="envelope" d="M1004.6 578.4c7.8 6.2 19.4 0.4 19.4-9.4v-409c0-53-43-96-96-96h-832c-53 0-96 43-96 96v408.8c0 10 11.4 15.6 19.4 9.4 44.8-34.8 104.2-79 308.2-227.2 42.2-30.8 113.4-95.6 184.4-95.2 71.4-0.6 144 65.6 184.6 95.2 204 148.2 263.2 192.6 308 227.4zM512 320c46.4-0.8 113.2 58.4 146.8 82.8 265.4 192.6 285.6 209.4 346.8 257.4 11.6 9 18.4 23 18.4 37.8v38c0 53-43 96-96 96h-832c-53 0-96-43-96-96v-38c0-14.8 6.8-28.6 18.4-37.8 61.2-47.8 81.4-64.8 346.8-257.4 33.6-24.4 100.4-83.6 146.8-82.8z" />
<glyph unicode="&#xe97b;" glyph-name="envelope-square" horiz-adv-x="896" d="M800 896h-704c-53.020 0-96-42.98-96-96v-704c0-53.020 42.98-96 96-96h704c53.020 0 96 42.98 96 96v704c0 53.020-42.98 96-96 96zM356.234 435.792c-181.376 131.634-179.528 131.966-228.234 169.874v50.334c0 26.51 21.49 48 48 48h544c26.51 0 48-21.49 48-48v-50.334c-48.742-37.938-46.868-38.248-228.234-169.876-21-15.31-62.784-52.24-91.766-51.788-29.006-0.436-70.734 36.454-91.766 51.79zM768 524.45v-284.45c0-26.51-21.49-48-48-48h-544c-26.51 0-48 21.49-48 48v284.45c27.916-21.588 66.658-50.472 190.606-140.428 28.324-20.682 75.95-64.29 129.388-64.020 53.774-0.268 102.074 44.082 129.44 64.050 123.916 89.93 162.65 118.812 190.566 140.398z" />
<glyph unicode="&#xe97c;" glyph-name="euro-sign" horiz-adv-x="640" d="M621.412 132.47c-2.628 13.26-15.67 21.744-28.848 18.738-21.384-4.878-54.844-10.826-90.852-10.826-113.526 0-203.858 69.58-242.922 170.898h227.378c11.39 0 20.926 7.934 23.385 18.576l0.031 0.162 12.746 56.72c3.372 15.004-8.038 29.262-23.416 29.262h-268.474c-2.42 28.656-2.828 56.574 0.274 84.49h293.186c0 0 0.001 0 0.001 0 11.436 0 21.005 7.999 23.415 18.708l0.030 0.16 13.024 59.51c3.276 14.968-8.122 29.132-23.446 29.132h-276.556c41.266 89.982 125.38 150.060 235.238 150.060 28.972 0 57.128-4.5 75.702-8.29 12.432-2.536 24.694 4.996 28.004 17.246l23.982 88.736c3.644 13.482-4.93 27.232-18.652 29.834-24.208 4.59-63.222 10.414-105.372 10.414-194.368 0-351.21-120.504-409.12-288h-66.15c-13.254 0-24-10.746-24-24v-59.51c0-13.254 10.746-24 24-24h43.138c-2.018-27.214-2.362-58.574-0.362-84.49h-42.776c-13.254 0-24-10.746-24-24v-56.72c0-13.254 10.746-24 24-24h60.228c50.050-180.664 206.3-311.28 415.042-311.28 52.602 0 97.124 9.088 122.202 15.576 12.334 3.19 20.054 15.416 17.576 27.914l-17.636 88.98z" />
<glyph unicode="&#xe97d;" glyph-name="exclamation" horiz-adv-x="384" d="M352 96c0-88.224-71.776-160-160-160s-160 71.776-160 160 71.776 160 160 160 160-71.776 160-160zM50.52 909.602l27.2-544c1.278-25.546 22.362-45.602 47.94-45.602h132.68c25.578 0 46.662 20.056 47.94 45.602l27.2 544c1.37 27.418-20.488 50.398-47.94 50.398h-187.080c-27.452 0-49.31-22.98-47.94-50.398z" />
<glyph unicode="&#xe97e;" glyph-name="exclamation-circle" d="M1008 448c0-273.994-222.086-496-496-496s-496 222.006-496 496c0 273.834 222.086 496 496 496s496-222.166 496-496zM512 348c-50.81 0-92-41.19-92-92s41.19-92 92-92 92 41.19 92 92-41.19 92-92 92zM424.654 678.692l14.836-272c0.694-12.728 11.218-22.692 23.964-22.692h97.092c12.746 0 23.27 9.964 23.964 22.692l14.836 272c0.75 13.748-10.196 25.308-23.964 25.308h-126.766c-13.768 0-24.712-11.56-23.962-25.308z" />
<glyph unicode="&#xe97f;" glyph-name="exclamation-square" horiz-adv-x="896" d="M800 896h-704c-53.020 0-96-42.98-96-96v-704c0-53.020 42.98-96 96-96h704c53.020 0 96 42.98 96 96v704c0 53.020-42.98 96-96 96zM384.618 704h126.764c13.768 0 24.714-11.56 23.964-25.308l-14.836-272c-0.694-12.728-11.218-22.692-23.964-22.692h-97.092c-12.746 0-23.27 9.964-23.964 22.692l-14.836 272c-0.75 13.748 10.196 25.308 23.964 25.308zM448 164c-50.81 0-92 41.19-92 92s41.19 92 92 92 92-41.19 92-92-41.19-92-92-92z" />
<glyph unicode="&#xe980;" glyph-name="exclamation-triangle" horiz-adv-x="1152" d="M1139.034 79.974c36.916-63.988-9.422-143.974-83.154-143.974h-959.772c-73.874 0-119.998 80.11-83.154 143.974l479.892 832.056c36.934 64.018 129.44 63.902 166.308 0l479.88-832.056zM576 252c-50.81 0-92-41.19-92-92s41.19-92 92-92 92 41.19 92 92-41.19 92-92 92zM488.654 582.692l14.836-272c0.694-12.728 11.218-22.692 23.964-22.692h97.092c12.746 0 23.27 9.964 23.964 22.692l14.836 272c0.75 13.748-10.196 25.308-23.964 25.308h-126.766c-13.768 0-24.712-11.56-23.962-25.308z" />
<glyph unicode="&#xe981;" glyph-name="expand" horiz-adv-x="896" d="M0 600v248c0 26.6 21.4 48 48 48h248c13.2 0 24-10.8 24-24v-80c0-13.2-10.8-24-24-24h-168v-168c0-13.2-10.8-24-24-24h-80c-13.2 0-24 10.8-24 24zM576 872v-80c0-13.2 10.8-24 24-24h168v-168c0-13.2 10.8-24 24-24h80c13.2 0 24 10.8 24 24v248c0 26.6-21.4 48-48 48h-248c-13.2 0-24-10.8-24-24zM872 320h-80c-13.2 0-24-10.8-24-24v-168h-168c-13.2 0-24-10.8-24-24v-80c0-13.2 10.8-24 24-24h248c26.6 0 48 21.4 48 48v248c0 13.2-10.8 24-24 24zM320 24v80c0 13.2-10.8 24-24 24h-168v168c0 13.2-10.8 24-24 24h-80c-13.2 0-24-10.8-24-24v-248c0-26.6 21.4-48 48-48h248c13.2 0 24 10.8 24 24z" />
<glyph unicode="&#xe982;" glyph-name="expand-alt" horiz-adv-x="896" d="M425.372 329.372l-185.372-185.372 65.844-62.058c30.24-30.24 8.824-81.942-33.94-81.942h-224c-26.51 0-47.904 21.49-47.904 48v224c0 42.764 51.606 64.18 81.844 33.942l62.156-65.942 185.372 185.372c12.496 12.496 32.758 12.496 45.254 0l50.746-50.746c12.498-12.496 12.498-32.756 0-45.254zM470.628 566.628l185.372 185.372-65.844 62.058c-30.24 30.24-8.824 81.942 33.94 81.942h224c26.51 0 47.904-21.49 47.904-48v-224c0-42.764-51.606-64.18-81.844-33.942l-62.156 65.942-185.372-185.372c-12.496-12.496-32.758-12.496-45.254 0l-50.746 50.746c-12.498 12.496-12.498 32.756 0 45.254z" />
<glyph unicode="&#xe983;" glyph-name="expand-arrows" horiz-adv-x="896" d="M896 336v-272c0-35.4-28.6-64-64-64h-272c-26.6 0-48 21.4-48 48v30.6c0 27 22.4 48.8 49.4 48l132.6-3.8-246 246-246-246 132.6 3.8c27 0.8 49.4-21 49.4-48v-30.6c0-26.6-21.4-48-48-48h-272c-35.4 0-64 28.6-64 64v272c0 26.6 21.4 48 48 48h30.6c27 0 48.8-22.4 48-49.4l-3.8-132.6 246 246-246 246 3.8-132.6c0.8-27-21-49.4-48-49.4h-30.6c-26.6 0-48 21.4-48 48v272c0 35.4 28.6 64 64 64h272c26.6 0 48-21.4 48-48v-30.6c0-27-22.4-48.8-49.4-48l-132.6 3.8 246-246 246 246-132.6-3.8c-27-0.8-49.4 21-49.4 48v30.6c0 26.6 21.4 48 48 48h272c35.4 0 64-28.6 64-64v-272c0-26.6-21.4-48-48-48h-30.6c-27 0-48.8 22.4-48 49.4l3.8 132.6-246-246 246-246-3.8 132.6c-0.8 27 21 49.4 48 49.4h30.6c26.6 0 48-21.4 48-48z" />
<glyph unicode="&#xe984;" glyph-name="expand-arrows-alt" horiz-adv-x="896" d="M896.2 272v-224c0-26.6-21.4-48-48-48h-224c-42.8 0-64.2 51.8-34 82l72.4 72.4-214.6 214.4-214.4-214.6 72.4-72.2c30.2-30.2 8.8-82-34-82h-224c-26.6 0-48 21.4-48 48v224c0 42.8 51.8 64.2 82 34l72.4-72.4 214.6 214.4-214.6 214.6-72.4-72.6c-30.2-30.2-82-8.8-82 34v224c0 26.6 21.4 48 48 48h224c42.8 0 64.2-51.8 34-82l-72.4-72.4 214.4-214.4 214.6 214.6-72.4 72.2c-30.2 30.2-8.8 82 34 82h224c26.6 0 48-21.4 48-48v-224c0-42.8-51.8-64.2-82-34l-72.4 72.4-214.6-214.4 214.6-214.6 72.4 72.4c30.2 30.4 82 9 82-33.8z" />
<glyph unicode="&#xe985;" glyph-name="expand-wide" d="M0 536v248c0 26.6 21.4 48 48 48h248c13.2 0 24-10.8 24-24v-80c0-13.2-10.8-24-24-24h-168v-168c0-13.2-10.8-24-24-24h-80c-13.2 0-24 10.8-24 24zM704 808v-80c0-13.2 10.8-24 24-24h168v-168c0-13.2 10.8-24 24-24h80c13.2 0 24 10.8 24 24v248c0 26.6-21.4 48-48 48h-248c-13.2 0-24-10.8-24-24zM1000 384h-80c-13.2 0-24-10.8-24-24v-168h-168c-13.2 0-24-10.8-24-24v-80c0-13.2 10.8-24 24-24h248c26.6 0 48 21.4 48 48v248c0 13.2-10.8 24-24 24zM320 88v80c0 13.2-10.8 24-24 24h-168v168c0 13.2-10.8 24-24 24h-80c-13.2 0-24-10.8-24-24v-248c0-26.6 21.4-48 48-48h248c13.2 0 24 10.8 24 24z" />
<glyph unicode="&#xe986;" glyph-name="external-link" horiz-adv-x="1152" d="M896 401.608v-369.608c0-53.020-42.98-96-96-96h-704c-53.020 0-96 42.98-96 96v704c0 53.020 42.98 96 96 96h496c13.254 0 25.254-5.372 33.94-14.058l32-32c30.24-30.24 8.824-81.942-33.94-81.942h-496v-640h640v305.608c0 12.73 5.058 24.94 14.058 33.942l32 32c30.238 30.238 81.942 8.822 81.942-33.942zM1152 885.334c0 41.236-33.43 74.666-74.666 74.666h-317.334c-30.928 0-56-25.072-56-56v-35.77c0-31.532 26.022-56.848 57.544-55.978l134.406 3.812-497.77-494.244c-18.858-18.726-18.914-49.21-0.122-68.002l47.758-47.758c18.792-18.792 49.278-18.738 68.002 0.12l494.244 497.77-3.812-134.406c-0.868-31.52 24.448-57.544 55.98-57.544h35.77c30.928 0 56 25.072 56 56v317.334z" />
<glyph unicode="&#xe988;" glyph-name="external-link-square" horiz-adv-x="896" d="M896 800v-704c0-53.020-42.98-96-96-96h-704c-53.020 0-96 42.98-96 96v704c0 53.020 42.98 96 96 96h704c53.020 0 96-42.98 96-96zM768 705.778c0 34.364-27.858 62.222-62.222 62.222h-264.444c-25.774 0-46.666-20.894-46.666-46.668v-29.808c0-26.276 21.686-47.372 47.952-46.648l112.004 3.176-414.808-411.868c-15.716-15.604-15.76-41.008-0.1-56.668l39.798-39.798c15.66-15.66 41.064-15.616 56.668 0.1l411.87 414.808-3.176-112.006c-0.724-26.266 20.372-47.952 46.648-47.952h29.808c25.774 0 46.668 20.894 46.668 46.666v264.444z" />
<glyph unicode="&#xe98a;" glyph-name="eye" horiz-adv-x="1152" d="M1138.708 496.738c-112.77 191.364-323.088 319.262-562.708 319.262-239.72 0-449.992-127.988-562.708-319.262-8.353-13.945-13.293-30.765-13.293-48.739s4.94-34.794 13.536-49.177l-0.243 0.438c112.77-191.362 323.088-319.26 562.708-319.26 239.72 0 449.992 127.988 562.708 319.262 8.353 13.945 13.293 30.764 13.293 48.738s-4.94 34.794-13.536 49.176l0.243-0.438zM576 176c-150.324 0-272 121.654-272 272 0 150.324 121.652 272 272 272 150.324 0 272-121.652 272-272 0-150.324-121.652-272-272-272zM784 448c0-114.876-93.124-208-208-208s-208 93.124-208 208c0 35.416 8.862 68.758 24.472 97.946l-0.002-0.064c0-47.302 38.346-85.646 85.648-85.646s85.648 38.346 85.648 85.646c0 47.302-38.346 85.648-85.648 85.648l-0.064-0.002c29.188 15.61 62.53 24.472 97.946 24.472 114.876 0 208-93.124 208-208z" />
<glyph unicode="&#xe98b;" glyph-name="eye-slash" horiz-adv-x="1152" d="M573.386 176.032l65.158-93.084c-18.742-1.873-40.514-2.943-62.536-2.948h-0.008c-239.62 0-449.938 127.898-562.708 319.262-8.353 13.945-13.293 30.765-13.293 48.739s4.94 34.794 13.536 49.177l-0.243-0.438c48.046 81.532 113.826 151.55 192.048 205.074l114.154-163.078c-10.022-28.376-15.494-58.91-15.494-90.736 0-149.472 120.27-270.564 269.386-271.968zM1138.708 399.262c-63.334-107.474-157.494-194.92-270.35-250.95l0.022-0.030 82.94-118.4c15.2-21.72 9.92-51.64-11.8-66.84l-26.22-18.36c-21.72-15.2-51.64-9.92-66.84 11.8l-645.78 909.638c-15.2 21.72-9.92 51.64 11.8 66.84l26.22 18.36c21.72 15.2 51.64 9.92 66.84-11.8l102.076-145.234c53.744 14.162 110.194 21.714 168.384 21.714 239.62 0 449.938-127.898 562.708-319.262 8.352-13.945 13.291-30.765 13.291-48.738s-4.939-34.793-13.534-49.176l0.243 0.438zM848 448c0 150.348-121.676 272-272 272-35.878 0-70.112-6.946-101.458-19.544l38.598-54.116c51.738 16.342 110.088 12.326 160.8-14.82h-0.060c-47.3 0-85.64-38.34-85.64-85.64 0-47.252 38.294-85.64 85.64-85.64 47.3 0 85.64 38.34 85.64 85.64v0.060c36.924-68.98 32.624-155.828-16.5-221.9v-0.020l38.628-54.122c41.344 47.702 66.352 109.954 66.352 178.102zM524.028 246.546l-155.060 221.514c-10.028-104.774 58.628-196.708 155.060-221.514z" />
<glyph unicode="&#xe98c;" glyph-name="fast-backward" d="M0 88v720c0 13.2 10.8 24 24 24h80c13.2 0 24-10.8 24-24v-303.8l343 313c41.2 34.2 105 5.6 105-49.2v-263.8l343 313c41.2 34.2 105 5.6 105-49.2v-640c0-54.8-63.8-83.4-105-49.2l-343 310.6v-261.4c0-54.8-63.8-83.4-105-49.2l-343 310.6v-301.4c0-13.2-10.8-24-24-24h-80c-13.2 0-24 10.8-24 24z" />
<glyph unicode="&#xe98d;" glyph-name="fast-forward" d="M1024 808v-720c0-13.2-10.8-24-24-24h-80c-13.2 0-24 10.8-24 24v303.8l-343-313c-41.2-34.4-105-5.6-105 49.2v263.8l-343-313c-41.2-34.4-105-5.6-105 49.2v640c0 54.8 63.8 83.4 105 49.2l343-310.8v261.6c0 54.8 63.8 83.4 105 49.2l343-310.8v301.6c0 13.2 10.8 24 24 24h80c13.2 0 24-10.8 24-24z" />
<glyph unicode="&#xe98e;" glyph-name="fax" d="M256 672v-640c0-53.020-42.98-96-96-96h-64c-53.020 0-96 42.98-96 96v640c0 53.020 42.98 96 96 96h64c53.020 0 96-42.98 96-96zM1024 544v-512c0-53.020-42.98-96-96-96h-544c-53.020 0-96 42.98-96 96v848c0 44.182 35.818 80 80 80h414.864c0.001 0 0.001 0 0.002 0 22.091 0 42.090-8.955 56.566-23.432l97.138-97.138c14.476-14.477 23.43-34.476 23.43-56.566v0-148.348c37.282-13.182 64-48.72 64-90.516zM384 576h480v192h-48c-26.406 0-48 21.594-48 48v48h-384v-288zM576 168c0 13.254-10.746 24-24 24h-80c-13.254 0-24-10.746-24-24v-80c0-13.254 10.746-24 24-24h80c13.254 0 24 10.746 24 24v80zM576 424c0 13.254-10.746 24-24 24h-80c-13.254 0-24-10.746-24-24v-80c0-13.254 10.746-24 24-24h80c13.254 0 24 10.746 24 24v80zM832 168c0 13.254-10.746 24-24 24h-80c-13.254 0-24-10.746-24-24v-80c0-13.254 10.746-24 24-24h80c13.254 0 24 10.746 24 24v80zM832 424c0 13.254-10.746 24-24 24h-80c-13.254 0-24-10.746-24-24v-80c0-13.254 10.746-24 24-24h80c13.254 0 24 10.746 24 24v80z" />
<glyph unicode="&#xe98f;" glyph-name="female" horiz-adv-x="512" d="M256 960c70.692 0 128-57.308 128-128s-57.308-128-128-128c-70.692 0-128 57.308-128 128s57.308 128 128 128zM494.566 251.642l-96 384c-5.392 21.048-24.191 36.358-46.566 36.358h-22.72c-45.422-20.886-99.18-21.788-146.56 0h-22.72c-22.375 0-41.174-15.31-46.494-36.025l-0.072-0.333-96-384c-7.564-30.252 15.332-59.642 46.566-59.642h112v-208c0-26.51 21.49-48 48-48h64c26.51 0 48 21.49 48 48v208h112c31.182 0 54.142 29.342 46.566 59.642z" />
<glyph unicode="&#xe990;" glyph-name="behance-square" horiz-adv-x="896" d="M373 374c0-38.6-28-50.8-62.4-50.8h-90.2v105.8h92c37.2-0.2 60.6-15.6 60.6-55zM357.6 538.6c0 35.4-27.4 43.8-57.8 43.8h-79.2v-89.6h85.4c30.2 0 51.6 13.2 51.6 45.8zM622.2 492.2c-36.6 0-61-22.8-63.4-59.4h124.4c-3.4 37-22.6 59.4-61 59.4zM896 800v-704c0-53-43-96-96-96h-704c-53 0-96 43-96 96v704c0 53 43 96 96 96h704c53 0 96-43 96-96zM543.4 590h155.6v37.8h-155.6v-37.8zM457.4 369.4c0 48.2-22.8 89.8-70 103.2 34.4 16.4 52.4 35.4 52.4 74 0 76.4-57 95-122.8 95h-181v-384h186.2c69.8 0.4 135.2 33.8 135.2 111.8zM760 399c0 82.2-48.2 150.8-135.2 150.8-84.8 0-142.2-63.6-142.2-147.2 0-86.6 54.6-146 142.2-146 66.4 0 109.4 29.8 130.2 93.6h-67.4c-7.4-23.8-37.2-36.2-60.4-36.2-44.8 0-68.2 26.2-68.2 70.6h200.4c0.2 4.6 0.6 9.6 0.6 14.4z" />
<glyph unicode="&#xe991;" glyph-name="bitcoin" d="M1008 448c0-273.934-222.066-496-496-496s-496 222.066-496 496 222.066 496 496 496 496-222.066 496-496zM724.698 518.66c9.874 65.998-40.382 101.478-109.1 125.146l22.292 89.404-54.426 13.562-21.702-87.048c-14.308 3.566-29.004 6.928-43.606 10.26l21.858 87.62-54.396 13.562-22.306-89.372c-11.844 2.698-23.47 5.364-34.754 8.168l0.062 0.28-75.060 18.74-14.478-58.124s40.382-9.254 39.53-9.826c22.044-5.502 26.028-20.088 25.36-31.65l-25.392-101.85c1.52-0.388 3.488-0.946 5.658-1.814-1.814 0.45-3.752 0.946-5.752 1.426l-35.592-142.676c-2.698-6.696-9.534-16.74-24.942-12.928 0.542-0.79-39.56 9.874-39.56 9.874l-27.020-62.294 70.828-17.654c13.176-3.302 26.090-6.758 38.8-10.012l-22.524-90.426 54.364-13.562 22.306 89.466c-0.128-0.559 14.408-4.432 29.005-8.151l14.369-3.103-22.23-89.046 54.426-13.562 22.524 90.256c92.808-17.562 162.598-10.478 191.972 73.454 23.672 67.58-1.178 106.562-50.008 131.982 35.56 8.196 62.348 31.584 69.494 79.898zM600.344 344.302c-16.82-67.58-130.616-31.046-167.51-21.886l29.888 119.798c36.892-9.206 155.2-27.434 137.622-97.912zM617.178 519.636c-15.346-61.472-110.062-30.24-140.786-22.584l27.096 108.654c30.726-7.656 129.672-21.946 113.69-86.070z" />
<glyph unicode="&#xe992;" glyph-name="file-alt" horiz-adv-x="768" d="M448 688v272h-400c-26.6 0-48-21.4-48-48v-928c0-26.6 21.4-48 48-48h672c26.6 0 48 21.4 48 48v656h-272c-26.4 0-48 21.6-48 48zM576 216c0-13.2-10.8-24-24-24h-336c-13.2 0-24 10.8-24 24v16c0 13.2 10.8 24 24 24h336c13.2 0 24-10.8 24-24v-16zM576 344c0-13.2-10.8-24-24-24h-336c-13.2 0-24 10.8-24 24v16c0 13.2 10.8 24 24 24h336c13.2 0 24-10.8 24-24v-16zM576 488v-16c0-13.2-10.8-24-24-24h-336c-13.2 0-24 10.8-24 24v16c0 13.2 10.8 24 24 24h336c13.2 0 24-10.8 24-24zM768 716.2v-12.2h-256v256h12.2c12.8 0 25-5 34-14l195.8-196c9-9 14-21.2 14-33.8z" />
<glyph unicode="&#xe993;" glyph-name="file-check" horiz-adv-x="768" d="M768 716.118v-12.118h-256v256h12.118c12.73 0 24.94-5.058 33.942-14.058l195.882-195.882c8.685-8.687 14.057-20.687 14.058-33.942v0zM496 640h272v-656c0-26.51-21.49-48-48-48h-672c-26.51 0-48 21.49-48 48v928c0 26.51 21.49 48 48 48h400v-272c0-26.4 21.6-48 48-48zM626.592 420.536l-56.338 56.796c-9.334 9.41-24.53 9.472-33.94 0.136l-212.074-210.368-91.96 92.704c-9.334 9.41-24.532 9.472-33.942 0.136l-56.794-56.34c-9.41-9.334-9.472-24.53-0.136-33.94l165.202-166.538c9.334-9.41 24.53-9.472 33.94-0.136l285.906 283.61c9.41 9.334 9.472 24.53 0.136 33.94z" />
<glyph unicode="&#xe994;" glyph-name="file-code" horiz-adv-x="768" d="M768 716.118v-12.118h-256v256h12.118c12.73 0 24.94-5.058 33.942-14.058l195.882-195.882c8.685-8.687 14.057-20.687 14.058-33.942v0zM496 640c-26.4 0-48 21.6-48 48v272h-400c-26.51 0-48-21.49-48-48v-928c0-26.51 21.49-48 48-48h672c26.51 0 48 21.49 48 48v656h-272zM246.412 158.99c-1.975-2.103-4.774-3.413-7.879-3.413-2.86 0-5.461 1.112-7.393 2.927l0.006-0.005-129.732 121.624c-2.103 1.975-3.413 4.774-3.413 7.879s1.31 5.904 3.408 7.874l0.006 0.005 129.732 121.624c1.926 1.81 4.527 2.921 7.387 2.921 3.105 0 5.904-1.31 7.874-3.408l0.005-0.006 39.158-41.77c1.809-1.926 2.921-4.527 2.921-7.387 0-3.224-1.413-6.119-3.653-8.097l-0.012-0.010-81.526-71.748 81.526-71.748c2.252-1.989 3.665-4.883 3.665-8.107 0-2.86-1.112-5.46-2.926-7.392l0.005 0.006-39.158-41.768zM349.002 58.032l-54.906 15.94c-4.537 1.349-7.789 5.482-7.789 10.375 0 1.072 0.156 2.108 0.447 3.086l-0.020-0.076 122.88 423.252c1.349 4.537 5.482 7.789 10.375 7.789 1.072 0 2.108-0.156 3.086-0.447l-0.076 0.020 54.904-15.94c4.537-1.348 7.789-5.48 7.789-10.372 0-1.073-0.157-2.11-0.448-3.089l0.020 0.076-122.88-423.252c-1.345-4.537-5.476-7.791-10.368-7.791-1.073 0-2.11 0.157-3.089 0.448l0.076-0.020zM670.586 280.122l-129.732-121.624c-1.926-1.81-4.527-2.921-7.387-2.921-3.105 0-5.904 1.31-7.874 3.408l-0.005 0.006-39.16 41.77c-1.809 1.926-2.921 4.527-2.921 7.387 0 3.224 1.413 6.119 3.653 8.097l0.012 0.010 81.528 71.746-81.526 71.748c-2.252 1.989-3.665 4.883-3.665 8.107 0 2.86 1.112 5.46 2.926 7.392l-0.005-0.006 39.16 41.77c1.975 2.103 4.774 3.413 7.879 3.413 2.86 0 5.461-1.112 7.393-2.927l-0.006 0.005 129.732-121.624c2.103-1.975 3.412-4.774 3.412-7.878s-1.311-5.904-3.409-7.875l-0.006-0.005z" />
<glyph unicode="&#xe995;" glyph-name="file-pdf" horiz-adv-x="768" d="M363.8 447.8c-10 32-9.8 93.8-4 93.8 16.8 0 15.2-73.8 4-93.8zM360.4 353.4c-15.4-40.4-34.6-86.6-56.8-125.4 36.6 14 78 34.4 125.8 43.8-25.4 19.2-49.8 46.8-69 81.6zM172.2 103.8c0-1.6 26.4 10.8 69.8 80.4-13.4-12.6-58.2-49-69.8-80.4zM496 640h272v-656c0-26.6-21.4-48-48-48h-672c-26.6 0-48 21.4-48 48v928c0 26.6 21.4 48 48 48h400v-272c0-26.4 21.6-48 48-48zM480 296.4c-40 24.4-66.6 58-85.4 107.6 9 37 23.2 93.2 12.4 128.4-9.4 58.8-84.8 53-95.6 13.6-10-36.6-0.8-88.2 16.2-154-23.2-55.2-57.4-129.2-81.6-171.6-0.2 0-0.2-0.2-0.4-0.2-54.2-27.8-147.2-89-109-136 11.2-13.8 32-20 43-20 35.8 0 71.4 36 122.2 123.6 51.6 17 108.2 38.2 158 46.4 43.4-23.6 94.2-39 128-39 58.4 0 62.4 64 39.4 86.8-27.8 27.2-108.6 19.4-147.2 14.4zM754 750l-196 196c-9 9-21.2 14-34 14h-12v-256h256v12.2c0 12.6-5 24.8-14 33.8zM605.8 239.4c8.2 5.4-5 23.8-85.6 18 74.2-31.6 85.6-18 85.6-18z" />
<glyph unicode="&#xe996;" glyph-name="filter" d="M975.952 960h-927.896c-42.636 0-64.15-51.732-33.94-81.942l369.884-369.94v-412.118c0-15.662 7.642-30.34 20.474-39.324l160-111.96c31.566-22.096 75.526 0.298 75.526 39.324v524.078l369.894 369.94c30.148 30.15 8.782 81.942-33.942 81.942z" />
<glyph unicode="&#xe997;" glyph-name="blogger" horiz-adv-x="896" d="M324.8 568c9.6 9.8 12.4 10.2 72.8 10.2 54.4 0 56.2-0.2 64.2-4.2 11.6-5.8 16.6-14 16.6-27.2 0-11.8-4.8-20-15.2-26.8-5.6-3.6-9-3.8-62.2-4.2-32.8-0.2-59 0.4-63 1.6-20.6 5.8-28.2 35.4-13.2 50.6zM447.6 379c-107.8 0-111.6-0.4-120.4-8.2-7-6.2-11.4-18.8-10.2-27.8 1.4-9.4 9.6-20.2 18.4-24 4.4-2 28.2-3.4 112.6-2.4l95.8 1.2 18.4 3c18 10.2 21 34.8 6.2 48.8-10.6 9.4-10 9.4-120.8 9.4zM894.4 118.8c-7-56.8-46-100.8-102.2-115-14.4-3.6-19.4-3.8-345.8-3.6-315.6 0-331.8 0.2-344 3.6-16.8 4.4-31.2 11-44.6 20-11.2 7.6-27.8 23.6-34 32.8-7.6 11.2-16.4 30.6-20 44s-3.8 18.8-3.8 346.8c0 326.2 0 333.2 3.6 347.4 12.6 49.4 51.8 87.2 102.4 98.4 14.6 3.2 664.2 3.8 680 0.6 42.4-8.6 75.8-34.2 95.2-72.8 15.4-30.6 14 3 14.6-361.2 0.4-231.6 0-329-1.4-341zM723.6 489.2c-2.2 10-8.4 19.2-15.4 23-2.2 1.2-16 2.6-31 3.4-24.8 1.2-27.6 1.6-35.6 6.2-12.4 7.2-15.8 15.2-16 36.6 0 40.8-17 78.8-50.6 113-24 24.4-50.6 41-81.2 50.2-7.2 2.2-23.6 3-78.4 3.6-85.8 1-105-0.8-134.2-12.4-54-21.4-92.6-66.8-106.8-124.8-2.6-10.8-3.2-28.4-3.8-128.6-0.8-125.6 0-144.2 8-169 19.4-61.4 74.2-106.8 129.2-116.8 18.4-3.4 244.4-4.2 267.4-1 40.2 5.4 71.8 21.6 101.4 51.8 21.4 21.8 34.8 45.6 43.6 77 6.4 21.8 5.8 176.8 3.4 187.8z" />
<glyph unicode="&#xe998;" glyph-name="blogger-b" horiz-adv-x="896" d="M893.2 514.6c-3.6 16-13.6 30.8-25 37-3.6 2-26 4.4-50 5.4-40.2 1.8-44.6 2.6-57.4 10-20.2 11.8-25.6 24.6-25.8 59-0.2 66-27.6 127.4-81.8 182.6-38.6 39.4-81.8 66-131 81-11.8 3.6-38.2 4.8-126.6 5.8-138.8 1.6-169.6-1.2-216.8-20-87-34.4-149.4-107.6-172.2-201.2-4.2-17.6-5.2-45.8-6.2-207.8-1.2-203 0.2-232.8 12.8-273 31.2-99.2 119.8-172.6 208.8-188.6 29.6-5.4 394.6-6.6 432-1.6 65 8.8 116 35 163.8 83.8 34.6 35.4 56.2 73.6 70.4 124.2 9.8 35.2 9 285.6 5 303.4zM249 641.8c15.6 15.8 20 16.4 117.6 16.4 87.8 0 90.8-0.2 103.6-6.8 18.6-9.4 26.8-22.6 26.8-43.8 0-19-7.6-32.4-24.6-43.2-9.2-5.8-14.6-6.2-100.6-6.6-53-0.4-95.4 0.8-101.6 2.4-33.2 9.4-45.6 57-21.2 81.6zM632.6 242.2l-29.8-4.8-155-1.8c-136.2-1.6-174.6 0.8-181.8 4-14.2 6.2-27.6 23.4-29.8 38.8-2.2 14.6 5.2 34.6 16.4 44.8 14.2 12.8 20.4 13.2 194.6 13.4 179.2 0.2 178.2 0.2 195.2-15.6 24.2-22.6 19-62.4-9.8-78.8z" />
<glyph unicode="&#xe999;" glyph-name="folder" d="M928 704h-384l-128 128h-320c-53.020 0-96-42.98-96-96v-576c0-53.020 42.98-96 96-96h832c53.020 0 96 42.98 96 96v448c0 53.020-42.98 96-96 96z" />
<glyph unicode="&#xe99a;" glyph-name="folder-open" horiz-adv-x="1152" d="M1145.388 375.814l-144.848-248.31c-22.607-38.251-63.634-63.504-110.56-63.504-0.001 0-0.002 0-0.002 0h-799.928c-37.046 0-60.128 40.186-41.462 72.186l144.848 248.31c22.608 38.251 63.637 63.504 110.563 63.504 0 0 0 0 0.001 0h799.928c37.046 0 60.128-40.186 41.46-72.186zM304 512h656v96c0 53.020-42.98 96-96 96h-320l-128 128h-320c-53.020 0-96-42.98-96-96v-556.092l138.154 236.836c34.274 58.756 97.824 95.256 165.846 95.256z" />
<glyph unicode="&#xe99b;" glyph-name="forward" d="M1001 497.2l-384 320c-41.2 34.2-105 5.6-105-49.2v-640c0-54.8 63.8-83.6 105-49.2l384 320c30.6 25.6 30.6 72.8 0 98.4zM489 497.2l-384 320c-41.2 34.2-105 5.6-105-49.2v-640c0-54.8 63.8-83.6 105-49.2l384 320c30.6 25.6 30.6 72.8 0 98.4z" />
<glyph unicode="&#xe99c;" glyph-name="gift" d="M976 576h-129.024c30.464 33.994 49.024 78.868 49.024 128 0 105.87-86.13 192-192 192-83.994 0-137.484-41.386-191.984-108.3-58.674 71.916-112.79 108.3-192.016 108.3-105.87 0-192-86.13-192-192 0-49.132 18.56-94.006 49.024-128h-129.024c-26.51 0-48-21.49-48-48v-160c0-26.51 21.49-48 48-48h16v-224c0-53.020 42.98-96 96-96h704c53.020 0 96 42.98 96 96v224h16c26.51 0 48 21.49 48 48v160c0 26.51-21.49 48-48 48zM560 640c48 112 110.648 128 144 128 35.29 0 64-28.71 64-64s-28.71-64-64-64h-144zM320 768c33.352 0 96-16 144-128h-144c-35.29 0-64 28.71-64 64s28.71 64 64 64zM416 512h192v-368c0-26.51-21.49-48-48-48h-96c-26.51 0-48 21.49-48 48v368z" />
<glyph unicode="&#xe99e;" glyph-name="handshake" horiz-adv-x="1280" d="M144 736h-96c-26.51 0-48-21.49-48-48v-416c0-26.51 21.49-48 48-48h96c26.51 0 48 21.49 48 48v416c0 26.51-21.49 48-48 48zM96 280c-22.092 0-40 17.908-40 40s17.908 40 40 40 40-17.908 40-40-17.908-40-40-40zM1232 736h-96c-26.51 0-48-21.49-48-48v-416c0-26.51 21.49-48 48-48h96c26.51 0 48 21.49 48 48v416c0 26.51-21.49 48-48 48zM1184 280c-22.092 0-40 17.908-40 40s17.908 40 40 40 40-17.908 40-40-17.908-40-40-40zM971.88 774.66l84.12-96.14v-358.52h-38.34c1.12 29.92-8.76 57.96-28 79.42l-161.84 197.82c5.86 6.4 5.52 16.32-0.76 22.32-5.64 5.4-14.16 5.84-20.28 1.52-0.84-0.6-120.7-125.86-120.7-125.86l-0.4-0.42c-47.808-53.81-132.254-52.408-178.3 2.84-30.96 37.16-30.58 90.78 0.9 127.52l133.14 155.34c27.188 31.74 67.648 51.5 111.98 51.5h92.1c50.301-0.002 95.437-22.116 126.217-57.151l0.163-0.189zM965.14 378.82c30.92-33.56 25.18-87.66-4.74-115.5-35.422-32.924-84.866-26.008-91.86-18.4 3.306-31.316-42.778-94.498-112.84-89.36-12.65-42.37-64.596-77.818-118.36-59.22-20.44-20.42-51.64-29.94-79.62-29.94-57.38 0-109.84 23.98-145.16 61.6l-188.56 192v368.96l122.72 101.14c25.883 25.886 61.642 41.897 101.139 41.9h74.841c33.46 0 65.36-13.68 88.42-37.7l-127.14-148.32c-41.68-48.62-42.18-119.62-1.18-168.84 58.75-70.494 166.014-71.706 226.62-3.84l96.22 100.7 159.5-195.18z" />
<glyph unicode="&#xe99f;" glyph-name="heart" horiz-adv-x="1152" d="M829.8 912c-106.2 0-205.8-83.4-253.8-130.6-48 47.2-147.6 130.6-253.8 130.6-181.6 0-290.2-105.8-290.2-283 0-145.2 133.6-266.6 138.4-270.8l374-361.6c17.6-17 45.6-17 63.2 0l373.4 360.4c5.4 5.4 139 127 139 272 0 177.2-108.6 283-290.2 283z" />
<glyph unicode="&#xe9a0;" glyph-name="history" d="M1008 448.938c0.506-273.28-222.36-496.744-495.64-496.936-118.030-0.084-226.446 41.060-311.644 109.822-22.154 17.88-23.81 51.082-3.678 71.214l22.534 22.534c17.218 17.218 44.706 19.102 63.782 3.968 62.77-49.81 142.208-79.54 228.646-79.54 203.41 0 368 164.622 368 368 0 203.41-164.622 368-368 368-97.628 0-186.298-37.938-252.136-99.864l101.508-101.508c20.16-20.16 5.882-54.628-22.626-54.628h-290.746c-17.674 0-32 14.326-32 32v290.746c0 28.508 34.468 42.786 54.628 22.628l98.744-98.744c89.046 85.098 209.732 137.37 342.628 137.37 273.62 0 495.494-221.56 496-495.062zM646.176 291.37l19.646 25.26c16.276 20.926 12.506 51.084-8.42 67.358l-81.402 63.314v208.698c0 26.51-21.49 48-48 48h-32c-26.51 0-48-21.49-48-48v-271.302l130.818-101.748c20.926-16.274 51.082-12.506 67.358 8.42z" />
<glyph unicode="&#xe9a1;" glyph-name="home" horiz-adv-x="1152" d="M976 334.6v-286.6c0-26.6-21.4-48-48-48h-232c-13.2 0-24 10.8-24 24v224c0 13.2-10.8 24-24 24h-144c-13.2 0-24-10.8-24-24v-224c0-13.2-10.8-24-24-24h-232c-26.6 0-48 21.4-48 48v286.6c0 7.2 3.2 14 8.8 18.6l376 309.6c8.8 7.2 21.6 7.2 30.6 0l376-309.6c5.4-4.6 8.6-11.4 8.6-18.6zM1143.2 456.4l-167.2 137.8v277c0 13.2-10.8 24-24 24h-112c-13.2 0-24-10.8-24-24v-145.2l-179 147.4c-35.4 29.2-86.6 29.2-122 0l-506.2-417c-10.2-8.4-11.6-23.6-3.2-33.8l51-62c8.4-10.2 23.6-11.6 33.8-3.2l470.4 387.4c8.8 7.2 21.6 7.2 30.6 0l470.4-387.4c10.2-8.4 25.4-7 33.8 3.2l51 62c8.4 10.4 6.8 25.4-3.4 33.8z" />
<glyph unicode="&#xe9a2;" glyph-name="id-badge" horiz-adv-x="768" d="M672 960h-576c-53.020 0-96-42.98-96-96v-832c0-53.020 42.98-96 96-96h576c53.020 0 96 42.98 96 96v832c0 53.020-42.98 96-96 96zM256 872c0 13.254 10.746 24 24 24h208c13.254 0 24-10.746 24-24v-16c0-13.254-10.746-24-24-24h-208c-13.254 0-24 10.746-24 24v16zM384 640c88.366 0 160-71.634 160-160s-71.634-160-160-160-160 71.634-160 160 71.634 160 160 160zM640 176c0-26.51-21.49-48-48-48h-416c-26.51 0-48 21.49-48 48v37.046c0 44.052 29.98 82.45 72.716 93.134l71.312 17.828c58.202-41.864 149.018-53.89 223.94 0l71.312-17.828c42.74-10.684 72.72-49.084 72.72-93.134v-37.046z" />
<glyph unicode="&#xe9a3;" glyph-name="id-card" d="M928 832h-832c-53.020 0-96-42.98-96-96v-576c0-53.020 42.98-96 96-96h832c53.020 0 96 42.98 96 96v576c0 53.020-42.98 96-96 96zM512 260c0-19.882-16.118-36-36-36h-312c-19.882 0-36 16.118-36 36v27.784c0 33.038 22.486 61.838 54.538 69.85l53.484 13.372c43.652-31.398 111.764-40.418 167.956 0l53.486-13.372c32.050-8.012 54.536-36.812 54.536-69.85v-27.784zM200 488c0 66.274 53.726 120 120 120s120-53.726 120-120-53.726-120-120-120-120 53.726-120 120zM896 280c0-13.254-10.746-24-24-24h-272c-13.254 0-24 10.746-24 24v16c0 13.254 10.746 24 24 24h272c13.254 0 24-10.746 24-24v-16zM896 408c0-13.254-10.746-24-24-24h-272c-13.254 0-24 10.746-24 24v16c0 13.254 10.746 24 24 24h272c13.254 0 24-10.746 24-24v-16zM896 536c0-13.254-10.746-24-24-24h-272c-13.254 0-24 10.746-24 24v16c0 13.254 10.746 24 24 24h272c13.254 0 24-10.746 24-24v-16zM960 728c0-13.254-10.746-24-24-24h-848c-13.254 0-24 10.746-24 24v16c0 13.254 10.746 24 24 24h848c13.254 0 24-10.746 24-24v-16z" />
<glyph unicode="&#xe9a4;" glyph-name="image" d="M928 64h-832c-53.020 0-96 42.98-96 96v576c0 53.020 42.98 96 96 96h832c53.020 0 96-42.98 96-96v-576c0-53.020-42.98-96-96-96zM224 720c-61.856 0-112-50.144-112-112s50.144-112 112-112 112 50.144 112 112-50.144 112-112 112zM128 192h768v224l-175.030 175.030c-9.372 9.372-24.568 9.372-33.942 0l-271.028-271.030-111.030 111.030c-9.372 9.372-24.568 9.372-33.942 0l-143.028-143.030v-96z" />
<glyph unicode="&#xe9a6;" glyph-name="inbox" horiz-adv-x="1152" d="M1135.876 472.184l-211.376 317.068c-17.463 25.923-46.705 42.747-79.878 42.748h-537.244c-33.172 0-62.414-16.825-79.659-42.406l-0.217-0.342-211.378-317.068c-10.101-14.963-16.124-33.403-16.124-53.249 0 0 0-0.001 0-0.001v0-258.934c0-53.020 42.98-96 96-96h960c53.020 0 96 42.98 96 96v258.934c0 0 0 0.001 0 0.001 0 19.846-6.023 38.286-16.341 53.59l0.217-0.341zM324.504 704h502.994l170.666-256h-246.164l-64-128h-224l-64 128h-246.164l170.668 256z" />
<glyph unicode="&#xe9a7;" glyph-name="inbox-in" horiz-adv-x="1152" d="M501 960h137.2c19 0 34.2-15.4 34.2-34.2v-285.8h136.6c35.6 0 53.4-43 28.2-68.2l-238.8-240c-15.8-15.8-41.8-15.6-57.2 0.6l-227.2 240c-24.2 25.4-6.2 67.6 29 67.6h123.8v285.8c0 18.8 15.4 34.2 34.2 34.2zM1131 282.2l-189.2 236.4c-9 11.2-26 12-36 1.8l-56.2-57.8c-8.4-8.6-9-22.2-1.6-31.8l88.6-110.8h-184.6l-64-128h-224l-64 128h-184.8l87.6 109.4c7.4 9.4 7 22.8-1.2 31.4l-55.2 59c-10 10.6-27.2 10-36.2-1.4l-188.8-236c-14-17.2-21.4-38.2-21.4-60v-190.4c0-53 43-96 96-96h960c53 0 96 43 96 96v190.4c0 21.8-7.4 42.8-21 59.8z" />
<glyph unicode="&#xe9a8;" glyph-name="inbox-out" horiz-adv-x="1152" d="M1152 222.4v-190.4c0-53-43-96-96-96h-960c-53 0-96 43-96 96v190.4c0 21.8 7.4 43 21 60l188.8 236c9.2 11.4 26.2 12 36.2 1.4l55.2-59c8.2-8.8 8.6-22 1.2-31.4l-87.2-109.4h184.8l64-128h224l64 128h184.8l-88.6 110.8c-7.6 9.4-7 23 1.6 31.8l56.2 57.8c10 10.4 27 9.6 36-1.8l189.2-236.4c13.4-17 20.8-38 20.8-59.8zM685.2 354.2v285.8h123.8c35.2 0 53.2 42.2 29 67.6l-227.4 240c-15.4 16.2-41.4 16.6-57.2 0.6l-238.8-240c-25.2-25.2-7.4-68.2 28.2-68.2h136.6v-285.8c0-19 15.4-34.2 34.2-34.2h137.2c19 0 34.4 15.4 34.4 34.2z" />
<glyph unicode="&#xe9ac;" glyph-name="info" horiz-adv-x="384" d="M40 111.542h40v288.916h-40c-22.092 0-40 17.908-40 40v95.542c0 22.092 17.908 40 40 40h224c22.092 0 40-17.908 40-40v-424.458h40c22.092 0 40-17.908 40-40v-95.542c0-22.092-17.908-40-40-40h-304c-22.092 0-40 17.908-40 40v95.542c0 22.092 17.908 40 40 40zM192 960c-79.53 0-144-64.47-144-144s64.47-144 144-144 144 64.47 144 144-64.472 144-144 144z" />
<glyph unicode="&#xe9ad;" glyph-name="info-circle" d="M512 944c-273.914 0-496-222.166-496-496 0-273.994 222.086-496 496-496s496 222.006 496 496c0 273.834-222.086 496-496 496zM512 724c46.392 0 84-37.608 84-84s-37.608-84-84-84-84 37.608-84 84 37.608 84 84 84zM624 216c0-13.254-10.746-24-24-24h-176c-13.254 0-24 10.746-24 24v48c0 13.254 10.746 24 24 24h24v128h-24c-13.254 0-24 10.746-24 24v48c0 13.254 10.746 24 24 24h128c13.254 0 24-10.746 24-24v-200h24c13.254 0 24-10.746 24-24v-48z" />
<glyph unicode="&#xe9ae;" glyph-name="info-square" horiz-adv-x="896" d="M800 896h-704c-53.020 0-96-42.98-96-96v-704c0-53.020 42.98-96 96-96h704c53.020 0 96 42.98 96 96v704c0 53.020-42.98 96-96 96zM448 724c46.392 0 84-37.608 84-84s-37.608-84-84-84-84 37.608-84 84 37.608 84 84 84zM560 216c0-13.254-10.746-24-24-24h-176c-13.254 0-24 10.746-24 24v48c0 13.254 10.746 24 24 24h24v128h-24c-13.254 0-24 10.746-24 24v48c0 13.254 10.746 24 24 24h128c13.254 0 24-10.746 24-24v-200h24c13.254 0 24-10.746 24-24v-48z" />
<glyph unicode="&#xe9af;" glyph-name="key" d="M1024 607.998c0-194.404-157.596-351.998-352-351.998-22.44 0-44.38 2.124-65.654 6.138l-48.024-54.028c-8.832-9.904-21.628-16.11-35.874-16.11-0.001 0-0.001 0-0.002 0h-74.446v-80c0-26.51-21.49-48-48-48h-80v-80c0-26.51-21.49-48-48-48h-224c-26.51 0-48 21.49-48 48v156.118c0 12.73 5.058 24.94 14.058 33.942l323.604 323.604c-11.446 34.708-17.662 71.794-17.662 110.336 0 194.404 157.594 351.998 351.998 352 194.978 0.002 352.002-157.022 352.002-352.002zM672 704c0-53.020 42.98-96 96-96s96 42.98 96 96-42.98 96-96 96-96-42.98-96-96z" />
<glyph unicode="&#xe9b1;" glyph-name="language" horiz-adv-x="1280" d="M608 128h-560c-26.51 0-48 21.49-48 48v544c0 26.51 21.49 48 48 48h560v-640zM366.648 273.244c3.016-10.048 12.183-17.244 23.029-17.244 0 0 0 0 0.001 0h45.726c16.44 0 28.014 16.156 22.724 31.722l-114.908 338.108c-3.315 9.547-12.233 16.278-22.724 16.278 0 0 0 0 0 0h-64.978c-10.491-0.001-19.409-6.731-22.673-16.11l-0.051-0.168-114.91-338.108c-5.29-15.566 6.284-31.722 22.724-31.722h45.61c10.899 0 20.1 7.265 23.027 17.216l0.043 0.17 18.236 63.614h120.422l18.702-63.756zM288.546 554.084s8.64-42.122 15.66-66.42l21.6-75.062h-76.14l22.14 75.062c7.020 24.3 15.66 66.42 15.66 66.42h1.080zM1232 128h-560v640h560c26.51 0 48-21.49 48-48v-544c0-26.51-21.49-48-48-48zM1160 584h-128v32c0 13.254-10.746 24-24 24h-32c-13.254 0-24-10.746-24-24v-32h-128c-13.254 0-24-10.746-24-24v-32c0-13.254 10.746-24 24-24h228.212c-12.526-28.598-33.036-57.944-60.046-86.412-13.12 13.796-24.794 27.82-34.73 41.866-7.278 10.288-21.17 13.35-31.99 6.892l-27.556-16.45c-11.912-7.112-15.386-22.842-7.47-34.234 12.13-17.458 26.196-34.672 41.968-51.452-16.244-12.452-33.682-24.488-52.206-35.928-11.042-6.82-14.762-21.112-8.324-32.38l15.882-27.792c6.724-11.766 21.87-15.652 33.412-8.552 25.464 15.662 49.142 32.35 70.886 49.782 21.834-17.522 45.532-34.204 70.792-49.762 11.548-7.112 26.706-3.236 33.434 8.54l15.888 27.806c6.426 11.246 2.74 25.52-8.27 32.342-20.199 12.555-37.197 24.433-53.55 37.104l1.43-1.066c42.048 44.85 71.536 92.578 85.426 139.7h22.812c13.254 0 24 10.746 24 24v32c0 13.25-10.746 23.996-24 23.996z" />
<glyph unicode="&#xe9b2;" glyph-name="laptop" horiz-adv-x="1280" d="M1024 832v-512h-768v512h768zM1056 960h-832c-53 0-96-43-96-96v-576c0-53 43-96 96-96h832c53 0 96 43 96 96v576c0 53-43 96-96 96zM1256 128h-477c-6 0-11-4.2-11.8-10.2-4.8-30.4-31.2-53.8-63.2-53.8h-128c-32 0-58.4 23.4-63.2 53.8-1 5.8-6 10.2-11.8 10.2h-477c-13.2 0-24-10.8-24-24v-72c0-53 43-96 96-96h1088c53 0 96 43 96 96v72c0 13.2-10.8 24-24 24z" />
<glyph unicode="&#xe9b3;" glyph-name="link" d="M653.224 589.218c119.494-119.618 117.854-311.396 0.72-429.18-0.22-0.24-0.48-0.5-0.72-0.74l-134.4-134.4c-118.54-118.54-311.398-118.524-429.92 0-118.54 118.52-118.54 311.4 0 429.92l74.212 74.212c19.68 19.68 53.572 6.6 54.588-21.212 1.296-35.444 7.652-71.054 19.38-105.442 3.972-11.644 1.134-24.524-7.566-33.224l-26.174-26.174c-56.052-56.052-57.81-147.32-2.31-203.92 56.048-57.158 148.172-57.498 204.65-1.020l134.4 134.38c56.382 56.382 56.146 147.514 0 203.66-7.402 7.388-14.858 13.128-20.682 17.138-8.122 5.632-13.481 14.755-13.892 25.151l-0.002 0.061c-0.792 21.134 6.696 42.912 23.396 59.612l42.108 42.11c11.042 11.042 28.364 12.398 41.168 3.462 15.28-10.741 28.689-22.040 41.044-34.394v0zM935.094 871.102c-118.522 118.524-311.38 118.54-429.92 0l-134.4-134.4c-0.24-0.24-0.5-0.5-0.72-0.74-117.132-117.784-118.774-309.562 0.72-429.18 12.354-12.354 25.763-23.652 40.080-33.749l0.962-0.643c12.804-8.936 30.128-7.578 41.168 3.462l42.108 42.11c16.7 16.7 24.188 38.478 23.396 59.612-0.413 10.457-5.772 19.58-13.788 25.142l-0.106 0.070c-5.824 4.010-13.28 9.75-20.682 17.138-56.146 56.146-56.382 147.278 0 203.66l134.4 134.38c56.478 56.478 148.6 56.138 204.65-1.020 55.5-56.6 53.744-147.868-2.31-203.92l-26.174-26.174c-8.7-8.7-11.538-21.58-7.566-33.224 11.728-34.388 18.084-69.998 19.38-105.442 1.018-27.812 34.908-40.892 54.588-21.212l74.212 74.212c118.542 118.518 118.542 311.398 0.002 429.918z" />
<glyph unicode="&#xe9b4;" glyph-name="list" d="M256 728v80c0 17.674 14.326 32 32 32h704c17.674 0 32-14.326 32-32v-80c0-17.674-14.326-32-32-32h-704c-17.674 0-32 14.326-32 32zM288 376h704c17.674 0 32 14.326 32 32v80c0 17.674-14.326 32-32 32h-704c-17.674 0-32-14.326-32-32v-80c0-17.674 14.326-32 32-32zM288 56h704c17.674 0 32 14.326 32 32v80c0 17.674-14.326 32-32 32h-704c-17.674 0-32-14.326-32-32v-80c0-17.674 14.326-32 32-32zM32 672h128c17.674 0 32 14.326 32 32v128c0 17.674-14.326 32-32 32h-128c-17.674 0-32-14.326-32-32v-128c0-17.674 14.326-32 32-32zM32 352h128c17.674 0 32 14.326 32 32v128c0 17.674-14.326 32-32 32h-128c-17.674 0-32-14.326-32-32v-128c0-17.674 14.326-32 32-32zM32 32h128c17.674 0 32 14.326 32 32v128c0 17.674-14.326 32-32 32h-128c-17.674 0-32-14.326-32-32v-128c0-17.674 14.326-32 32-32z" />
<glyph unicode="&#xe9b5;" glyph-name="list-alt" d="M928 0h-832c-53.020 0-96 42.98-96 96v704c0 53.020 42.98 96 96 96h832c53.020 0 96-42.98 96-96v-704c0-53.020-42.98-96-96-96zM256 720c-44.182 0-80-35.818-80-80s35.818-80 80-80 80 35.818 80 80-35.818 80-80 80zM256 528c-44.182 0-80-35.818-80-80s35.818-80 80-80 80 35.818 80 80-35.818 80-80 80zM256 336c-44.182 0-80-35.818-80-80s35.818-80 80-80 80 35.818 80 80-35.818 80-80 80zM832 608v64c0 13.254-10.746 24-24 24h-400c-13.254 0-24-10.746-24-24v-64c0-13.254 10.746-24 24-24h400c13.254 0 24 10.746 24 24zM832 416v64c0 13.254-10.746 24-24 24h-400c-13.254 0-24-10.746-24-24v-64c0-13.254 10.746-24 24-24h400c13.254 0 24 10.746 24 24zM832 224v64c0 13.254-10.746 24-24 24h-400c-13.254 0-24-10.746-24-24v-64c0-13.254 10.746-24 24-24h400c13.254 0 24 10.746 24 24z" />
<glyph unicode="&#xe9b6;" glyph-name="list-ul" d="M192 768c0-53.020-42.98-96-96-96s-96 42.98-96 96 42.98 96 96 96 96-42.98 96-96zM96 544c-53.020 0-96-42.98-96-96s42.98-96 96-96 96 42.98 96 96-42.98 96-96 96zM96 224c-53.020 0-96-42.98-96-96s42.98-96 96-96 96 42.98 96 96-42.98 96-96 96zM288 696h704c17.674 0 32 14.326 32 32v80c0 17.674-14.326 32-32 32h-704c-17.674 0-32-14.326-32-32v-80c0-17.674 14.326-32 32-32zM288 376h704c17.674 0 32 14.326 32 32v80c0 17.674-14.326 32-32 32h-704c-17.674 0-32-14.326-32-32v-80c0-17.674 14.326-32 32-32zM288 56h704c17.674 0 32 14.326 32 32v80c0 17.674-14.326 32-32 32h-704c-17.674 0-32-14.326-32-32v-80c0-17.674 14.326-32 32-32z" />
<glyph unicode="&#xe9b7;" glyph-name="lock-alt" horiz-adv-x="896" d="M800 512h-48v144c0 167.6-136.4 304-304 304s-304-136.4-304-304v-144h-48c-53 0-96-43-96-96v-384c0-53 43-96 96-96h704c53 0 96 43 96 96v384c0 53-43 96-96 96zM528 176c0-44.2-35.8-80-80-80s-80 35.8-80 80v96c0 44.2 35.8 80 80 80s80-35.8 80-80v-96zM592 512h-288v144c0 79.4 64.6 144 144 144s144-64.6 144-144v-144z" />
<glyph unicode="&#xe9b8;" glyph-name="lock-open-alt" horiz-adv-x="1152" d="M847 960c-168-0.6-303-139-303-307v-141h-448c-53 0-96-43-96-96v-384c0-53 43-96 96-96h704c53 0 96 43 96 96v384c0 53-43 96-96 96h-96v142.2c0 79.2 63.4 145 142.6 145.8 80 0.8 145.4-64.2 145.4-144v-160c0-26.6 21.4-48 48-48h64c26.6 0 48 21.4 48 48v160c0 168-137 304.6-305 304zM528 176c0-44.2-35.8-80-80-80s-80 35.8-80 80v96c0 44.2 35.8 80 80 80s80-35.8 80-80v-96z" />
<glyph unicode="&#xe9b9;" glyph-name="long-arrow-down" horiz-adv-x="640" d="M523.146 386.912l-131.146-131.148v592.236c0 26.51-21.49 48-48 48h-48c-26.51 0-48-21.49-48-48v-592.236l-131.146 131.148c-18.746 18.746-49.138 18.746-67.882 0l-33.942-33.942c-18.746-18.746-18.746-49.138 0-67.882l271.030-271.028c18.746-18.746 49.136-18.746 67.882 0l271.030 271.028c18.746 18.746 18.746 49.138 0 67.882l-33.942 33.942c-18.746 18.746-49.138 18.746-67.884 0z" />
<glyph unicode="&#xe9ba;" glyph-name="long-arrow-left" horiz-adv-x="896" d="M386.912 244.854l-131.148 131.146h592.236c26.51 0 48 21.49 48 48v48c0 26.51-21.49 48-48 48h-592.236l131.148 131.146c18.746 18.746 18.746 49.138 0 67.882l-33.942 33.942c-18.746 18.746-49.138 18.746-67.882 0l-271.030-271.028c-18.746-18.746-18.746-49.136 0-67.882l271.030-271.030c18.746-18.746 49.138-18.746 67.882 0l33.942 33.942c18.746 18.744 18.746 49.136 0 67.882z" />
<glyph unicode="&#xe9bb;" glyph-name="long-arrow-right" horiz-adv-x="896" d="M509.088 651.146l131.148-131.146h-592.236c-26.51 0-48-21.49-48-48v-48c0-26.51 21.49-48 48-48h592.236l-131.148-131.146c-18.746-18.746-18.746-49.138 0-67.882l33.942-33.942c18.746-18.746 49.138-18.746 67.882 0l271.028 271.030c18.746 18.746 18.746 49.138 0 67.882l-271.028 271.028c-18.746 18.746-49.138 18.746-67.882 0l-33.942-33.942c-18.746-18.744-18.746-49.136 0-67.882z" />
</font>
</defs>
</svg>
